<svg xmlns="http://www.w3.org/2000/svg" viewBox="0 0 24 24" role="img" aria-label="GitHub">
  <rect width="24" height="24" rx="4" fill="#111827"/>
  <path d="M12 5.3a6.7 6.7 0 0 0-2.1 13c.3.1.4-.1.4-.3v-1.2c-1.8.4-2.2-.8-2.2-.8-.3-.8-.7-1-.7-1-.6-.4 0-.4 0-.4.6 0 1 .6 1 .6.6 1 1.5.7 1.9.6 0-.4.2-.7.4-.8-1.4-.2-2.8-.7-2.8-3.1 0-.7.3-1.3.7-1.8-.1-.2-.3-.9.1-1.8 0 0 .6-.2 1.9.7a6.3 6.3 0 0 1 3.4 0c1.3-.9 1.9-.7 1.9-.7.4.9.2 1.6.1 1.8.5.5.7 1.1.7 1.8 0 2.4-1.4 2.9-2.8 3.1.2.2.4.5.4 1v1.5c0 .2.1.4.4.3A6.7 6.7 0 0 0 12 5.3z" fill="#fff"/>
</svg>
