<svg xmlns="http://www.w3.org/2000/svg" viewBox="0 0 24 24" role="img" aria-label="Tailwind CSS">
  <rect width="24" height="24" rx="4" fill="#0B1228"/>
  <path d="M7.5 10.2c1-1.3 2-1.8 3-1.6 1 .1 1.7.8 2.5 1.5.9.8 1.8 1.6 3.5 1.6 1.4 0 2.5-.6 3.4-1.9-.8 2.7-2.2 4-4 4-1 0-1.7-.4-2.4-.9-.7-.5-1.4-1-2.6-1-1.5 0-2.7.8-3.4 2.4-.4-.7-.7-1.4-.9-2.1.3-.7.6-1.4 1-2z" fill="#38BDF8"/>
  <path d="M4 14.8c1-1.3 2-1.8 3-1.6 1 .1 1.7.8 2.5 1.5.9.8 1.8 1.6 3.5 1.6 1.4 0 2.5-.6 3.4-1.9-.8 2.7-2.2 4-4 4-1 0-1.7-.4-2.4-.9-.7-.5-1.4-1-2.6-1-1.5 0-2.7.8-3.4 2.4-.9-1.2-1.4-2.6-1.6-4.1.2-.3.4-.7.6-1z" fill="#22D3EE"/>
</svg>
