<?xml version="1.0" encoding="UTF-8"?>
<svg version="1.1" xmlns="http://www.w3.org/2000/svg" width="654" height="302">
<path d="M0 0 C1.83968605 0.03185898 1.83968605 0.03185898 3.71653748 0.06436157 C6.28902373 0.11035723 8.86145949 0.15926062 11.43383789 0.2109375 C15.39003216 0.28943829 19.34630737 0.35627317 23.30273438 0.421875 C25.80600242 0.46805939 28.30925828 0.51491029 30.8125 0.5625 C32.59509972 0.59227432 32.59509972 0.59227432 34.41371155 0.62265015 C35.50252121 0.64582306 36.59133087 0.66899597 37.71313477 0.69287109 C38.67558609 0.71143158 39.63803741 0.72999207 40.62965393 0.74911499 C42.80859375 0.9140625 42.80859375 0.9140625 43.80859375 1.9140625 C44.08788815 5.15557029 44.04042555 8.41195552 44.05859375 11.6640625 C44.07921875 12.5715625 44.09984375 13.4790625 44.12109375 14.4140625 C44.1507943 19.49285575 44.06275045 22.80602584 40.80859375 26.9140625 C40.12458496 27.82212646 40.12458496 27.82212646 39.42675781 28.74853516 C37.74670624 30.97085569 36.03143186 33.16226702 34.30859375 35.3515625 C33.6842041 36.14997559 33.05981445 36.94838867 32.41650391 37.77099609 C29.57436799 41.4025739 26.72203174 45.02602275 23.86328125 48.64453125 C22.96989532 49.77591789 22.07666184 50.90742495 21.18359375 52.0390625 C20.74684326 52.59231201 20.31009277 53.14556152 19.86010742 53.71557617 C15.851333 58.81584493 11.97249577 64.010174 8.09521484 69.21069336 C4.11353629 74.53944324 0.0058727 79.75331725 -4.19140625 84.9140625 C-4.88234375 85.80738281 -5.57328125 86.70070313 -6.28515625 87.62109375 C-8.19140625 89.9140625 -8.19140625 89.9140625 -10.19140625 90.9140625 C-12.3576315 91.01161534 -14.52689274 91.04483359 -16.6953125 91.046875 C-17.99275391 91.04816406 -19.29019531 91.04945313 -20.62695312 91.05078125 C-21.64196899 91.04763916 -21.64196899 91.04763916 -22.67749023 91.04443359 C-24.7492604 91.03907452 -26.82081464 91.04438768 -28.89257812 91.05078125 C-30.18873047 91.04949219 -31.48488281 91.04820312 -32.8203125 91.046875 C-34.0172876 91.04574707 -35.2142627 91.04461914 -36.44750977 91.04345703 C-39.19140625 90.9140625 -39.19140625 90.9140625 -40.19140625 89.9140625 C-40.34354878 87.83171024 -40.4250736 85.74417597 -40.47949219 83.65698242 C-40.50621506 82.6761821 -40.50621506 82.6761821 -40.53347778 81.67556763 C-40.68869226 75.60618454 -40.77558935 69.53515547 -40.84347153 63.46422863 C-40.88947907 59.38949696 -40.95644174 55.31767386 -41.07617188 51.24438477 C-41.19166329 47.30065666 -41.25149081 43.35952711 -41.27399445 39.41420937 C-41.29163649 37.91937787 -41.32816938 36.42463151 -41.38500214 34.9307766 C-41.65382476 27.50732427 -41.3825715 21.52183863 -36.32782364 15.75140095 C-34.87770723 14.25874198 -33.39069025 12.83325781 -31.85772705 11.42622375 C-29.41762015 9.12719732 -27.867435 7.05835493 -26.12890625 4.2265625 C-24.54272243 2.04945566 -23.79734933 1.0783887 -21.18080139 0.36880493 C-14.10724813 -0.1346204 -7.08849584 -0.14476465 0 0 Z M-20.19140625 23.9140625 C-20.19140625 38.4340625 -20.19140625 52.9540625 -20.19140625 67.9140625 C-14.63160418 68.50946417 -14.63160418 68.50946417 -12.44042969 66.61645508 C-11.75255371 65.72156372 -11.75255371 65.72156372 -11.05078125 64.80859375 C-10.28121094 63.82729492 -10.28121094 63.82729492 -9.49609375 62.82617188 C-8.72652344 61.78686523 -8.72652344 61.78686523 -7.94140625 60.7265625 C-7.41289062 60.05302734 -6.884375 59.37949219 -6.33984375 58.68554688 C-3.69428494 55.24430604 -1.52416484 52.09924953 -0.19140625 47.9140625 C-0.78308594 47.26179688 -1.37476563 46.60953125 -1.984375 45.9375 C-13.91578179 32.74093589 -13.91578179 32.74093589 -15.19140625 28.9140625 C-11.44027727 28.96593791 -7.69145093 29.06101468 -3.94140625 29.1640625 C-2.87792969 29.17824219 -1.81445312 29.19242188 -0.71875 29.20703125 C0.30605469 29.23925781 1.33085937 29.27148438 2.38671875 29.3046875 C3.3293457 29.32563477 4.27197266 29.34658203 5.24316406 29.36816406 C8.47682206 30.05625497 9.70612388 31.4308985 11.80859375 33.9140625 C12.63359375 32.9653125 13.45859375 32.0165625 14.30859375 31.0390625 C14.77265625 30.50539063 15.23671875 29.97171875 15.71484375 29.421875 C17.00431833 27.95469829 17.00431833 27.95469829 16.80859375 25.9140625 C17.46859375 25.9140625 18.12859375 25.9140625 18.80859375 25.9140625 C18.80859375 25.2540625 18.80859375 24.5940625 18.80859375 23.9140625 C5.93859375 23.9140625 -6.93140625 23.9140625 -20.19140625 23.9140625 Z " fill="#1E2427" transform="translate(153.19140625,79.0859375)"/>
<path d="M0 0 C1.96936523 0.04737305 1.96936523 0.04737305 3.97851562 0.09570312 C7.21711009 0.17814008 10.4511694 0.29317672 13.6875 0.4375 C13.8501158 9.42598674 13.97428181 18.41396267 14.0501852 27.4036026 C14.0866267 31.57851841 14.13600555 35.7524236 14.21557617 39.92675781 C14.29196818 43.95985249 14.33355854 47.99197894 14.3516407 52.02574158 C14.36451611 53.55996434 14.3896602 55.09413758 14.4276104 56.62794495 C14.74851965 70.14272124 14.74851965 70.14272124 10.76977539 74.69335938 C10.12947388 75.26641312 9.48917236 75.83946686 8.82946777 76.42988586 C6.62953971 78.49182476 5.06733322 80.72761064 3.35840416 83.1983614 C0.55896761 87.07337711 -1.86923572 89.97432804 -6.57888794 91.48574829 C-10.38090889 91.83965381 -14.00205761 91.81686357 -17.81640625 91.64453125 C-19.18970877 91.62463973 -20.56309594 91.60997697 -21.93650818 91.6002655 C-25.52095888 91.5604568 -29.0994674 91.44781114 -32.68170166 91.31976318 C-36.34499748 91.20324316 -40.00914175 91.16191848 -43.67382812 91.11132812 C-49.00592505 91.02432443 -54.33612835 90.91189087 -59.66625977 90.74145508 C-60.73530045 90.70748123 -61.80434113 90.67350739 -62.90577698 90.63850403 C-65.3125 90.4375 -65.3125 90.4375 -66.3125 89.4375 C-67.38889798 80.41564696 -68.31902936 69.82884908 -62.9375 62.125 C-61.0390625 59.88671875 -61.0390625 59.88671875 -59.3125 58.4375 C-58.6525 58.4375 -57.9925 58.4375 -57.3125 58.4375 C-57.04099121 57.86040283 -56.76948242 57.28330566 -56.48974609 56.6887207 C-55.30730944 54.42757421 -53.98720554 52.47251148 -52.4765625 50.41796875 C-51.91291992 49.65049316 -51.34927734 48.88301758 -50.76855469 48.09228516 C-50.16430664 47.27808105 -49.56005859 46.46387695 -48.9375 45.625 C-48.31262695 44.7798584 -47.68775391 43.9347168 -47.04394531 43.06396484 C-42.21700537 36.57218322 -37.22468414 30.23316477 -32.13671875 23.9453125 C-29.3345334 20.47942632 -26.59280244 16.96982146 -23.875 13.4375 C-23.11316406 12.4475 -22.35132813 11.4575 -21.56640625 10.4375 C-19.36983436 7.74406777 -19.36983436 7.74406777 -18.5018158 5.62866211 C-14.68610234 -1.9212471 -7.462544 -0.33836149 0 0 Z M-8.3125 23.4375 C-10.14695452 25.37686614 -11.86269593 27.3224972 -13.5625 29.375 C-14.05468018 29.96240967 -14.54686035 30.54981934 -15.05395508 31.1550293 C-18.81557325 35.70158378 -22.22844719 40.40151503 -25.3125 45.4375 C-24.54164063 46.24574219 -23.77078125 47.05398437 -22.9765625 47.88671875 C-21.9631686 48.96579559 -20.95016842 50.04524229 -19.9375 51.125 C-19.42960937 51.65544922 -18.92171875 52.18589844 -18.3984375 52.73242188 C-15.54102543 55.79662035 -13.57192429 58.3481645 -12.3125 62.4375 C-12.95799805 62.40720703 -13.60349609 62.37691406 -14.26855469 62.34570312 C-17.19982597 62.20867858 -20.1311613 62.07307441 -23.0625 61.9375 C-24.07828125 61.88980469 -25.0940625 61.84210938 -26.140625 61.79296875 C-27.1203125 61.74785156 -28.1 61.70273438 -29.109375 61.65625 C-30.46047363 61.5934082 -30.46047363 61.5934082 -31.83886719 61.52929688 C-33.99547724 61.44926476 -36.15440546 61.4375 -38.3125 61.4375 C-39.6325 63.7475 -40.9525 66.0575 -42.3125 68.4375 C-30.4325 68.4375 -18.5525 68.4375 -6.3125 68.4375 C-6.3125 53.5875 -6.3125 38.7375 -6.3125 23.4375 C-6.9725 23.4375 -7.6325 23.4375 -8.3125 23.4375 Z " fill="#1E2527" transform="translate(222.3125,99.5625)"/>
<path d="M0 0 C0.598125 0.495 1.19625 0.99 1.8125 1.5 C1.49701031 5.28587623 1.19303743 8.52487284 -0.1875 12.0625 C-3.20234858 14.22942242 -5.77606207 13.42526921 -9.32421875 12.859375 C-9.93910156 12.74078125 -10.55398438 12.6221875 -11.1875 12.5 C-11.5175 14.48 -11.8475 16.46 -12.1875 18.5 C-10.516875 18.2525 -10.516875 18.2525 -8.8125 18 C-0.98336804 17.10488185 6.94560946 17.42362242 14.8125 17.5 C16.654805 21.60019767 18.48479455 25.70577608 20.3125 29.8125 C20.83714844 30.97974609 21.36179687 32.14699219 21.90234375 33.34960938 C22.39863281 34.46787109 22.89492188 35.58613281 23.40625 36.73828125 C23.86708984 37.76993408 24.32792969 38.80158691 24.80273438 39.86450195 C25.8125 42.5 25.8125 42.5 25.8125 45.5 C26.4725 45.5 27.1325 45.5 27.8125 45.5 C28.163125 44.365625 28.51375 43.23125 28.875 42.0625 C30.51294326 37.14867021 32.42235132 32.35765663 34.375 27.5625 C34.67994385 26.80461182 34.9848877 26.04672363 35.29907227 25.26586914 C37.57378971 19.73871029 37.57378971 19.73871029 39.8125 17.5 C42.8515625 17.3046875 42.8515625 17.3046875 46.4375 17.375 C48.22027344 17.40207031 48.22027344 17.40207031 50.0390625 17.4296875 C50.95429688 17.45289062 51.86953125 17.47609375 52.8125 17.5 C54.41586302 22.2894744 52.911626 25.4803976 50.875 29.828125 C50.55724609 30.53539734 50.23949219 31.24266968 49.91210938 31.97137451 C48.89144451 34.23684512 47.85281228 36.49349358 46.8125 38.75 C45.80899008 40.95529202 44.8093863 43.16230963 43.81118774 45.37001038 C43.14453247 46.84399588 42.4757226 48.31700876 41.80477905 49.78904724 C39.09670516 55.76378299 36.59104495 61.81060823 34.21313477 67.92425537 C31.73352855 74.14587841 28.62117233 79.54013431 22.53515625 82.671875 C19.22163714 83.67971725 16.33676626 83.80122389 12.875 83.8125 C11.69035156 83.82925781 10.50570312 83.84601563 9.28515625 83.86328125 C5.51160284 83.46852257 3.07458824 82.38752892 -0.1875 80.5 C0.2807121 75.72423661 1.05581998 72.45523655 3.8125 68.5 C4.493125 68.665 5.17375 68.83 5.875 69 C9.2289822 69.57089059 12.41639805 69.56659023 15.8125 69.5 C17.2799138 66.63480364 17.95748739 65.12415883 17.21679688 61.93554688 C16.82556641 61.03900391 16.43433594 60.14246094 16.03125 59.21875 C15.39014282 57.7169519 15.39014282 57.7169519 14.73608398 56.18481445 C14.26630127 55.13382568 13.79651855 54.08283691 13.3125 53 C12.84851807 51.92516357 12.38453613 50.85032715 11.90649414 49.74291992 C9.02279409 43.09961788 6.04875449 36.49663455 2.87109375 29.98828125 C1.80745385 27.48813875 1.24167174 25.17629569 0.8125 22.5 C0.1525 22.5 -0.5075 22.5 -1.1875 22.5 C-0.98125 23.61375 -0.775 24.7275 -0.5625 25.875 C-0.43875 27.07125 -0.315 28.2675 -0.1875 29.5 C-2.1875 31.5 -2.1875 31.5 -4.7890625 31.6953125 C-6.28566406 31.66050781 -6.28566406 31.66050781 -7.8125 31.625 C-8.81539063 31.60695312 -9.81828125 31.58890625 -10.8515625 31.5703125 C-12.00785156 31.53550781 -12.00785156 31.53550781 -13.1875 31.5 C-12.8575 32.16 -12.5275 32.82 -12.1875 33.5 C-11.94198895 37.91177172 -12.00228903 42.33217434 -12 46.75 C-11.98775391 47.97847656 -11.97550781 49.20695312 -11.96289062 50.47265625 C-11.95999023 52.25736328 -11.95999023 52.25736328 -11.95703125 54.078125 C-11.95292236 55.16512695 -11.94881348 56.25212891 -11.94458008 57.37207031 C-12.20258128 60.69419226 -13.00960129 63.3943389 -14.1875 66.5 C-16.33326637 66.52685938 -18.47912645 66.54633088 -20.625 66.5625 C-21.81996094 66.57410156 -23.01492188 66.58570313 -24.24609375 66.59765625 C-27.1875 66.5 -27.1875 66.5 -28.1875 65.5 C-29.50483882 58.94113701 -29.3354209 52.35366079 -29.3125 45.6875 C-29.31636719 44.54345703 -29.32023437 43.39941406 -29.32421875 42.22070312 C-29.32292969 41.13080078 -29.32164062 40.04089844 -29.3203125 38.91796875 C-29.31918457 37.92563232 -29.31805664 36.9332959 -29.31689453 35.91088867 C-29.1875 33.5 -29.1875 33.5 -28.1875 31.5 C-29.8890625 31.5309375 -29.8890625 31.5309375 -31.625 31.5625 C-35.1875 31.5 -35.1875 31.5 -36.1875 30.5 C-36.25994053 28.48035801 -36.27127188 26.45832876 -36.25 24.4375 C-36.24097656 23.33277344 -36.23195313 22.22804688 -36.22265625 21.08984375 C-36.21105469 20.23519531 -36.19945312 19.38054687 -36.1875 18.5 C-33.8775 18.5 -31.5675 18.5 -29.1875 18.5 C-29.31125 17.2625 -29.31125 17.2625 -29.4375 16 C-29.03223089 10.32623245 -26.81886513 6.13136513 -22.8125 2.125 C-16.03099343 -2.07307549 -7.37608766 -3.47110008 0 0 Z " fill="#1D2225" transform="translate(431.1875,95.5)"/>
<path d="M0 0 C6.18802296 5.019033 10.29606323 12.5829541 11.6875 20.375 C12.50228692 31.1266448 10.49467768 38.92092449 3.6875 47.375 C-2.28977805 53.82416843 -10.3765772 57.87830413 -19.16015625 58.61328125 C-28.95850202 58.8394885 -37.13140868 56.94106392 -45.3125 51.375 C-45.3125 50.715 -45.3125 50.055 -45.3125 49.375 C-45.89 49.148125 -46.4675 48.92125 -47.0625 48.6875 C-51.51095469 46.0925681 -54.10607234 41.89916862 -55.76953125 37.07421875 C-57.47306955 28.60554992 -57.90998886 18.04483067 -53.63671875 10.29296875 C-48.34477606 2.6282376 -42.35167999 -3.49167075 -33.125 -5.9375 C-21.09648332 -8.06992206 -10.27602459 -6.85068306 0 0 Z M-35.1875 12.8125 C-39.21261381 17.66631372 -40.64899958 22.15006081 -40.13671875 28.58203125 C-39.16705518 34.33145058 -36.9104176 38.67906624 -32.3125 42.375 C-29.06785356 43.57003038 -25.80958157 43.57302651 -22.375 43.625 C-21.35535156 43.65078125 -20.33570313 43.6765625 -19.28515625 43.703125 C-14.59655125 43.18559173 -11.47612519 41.00757167 -8.5625 37.375 C-5.60627118 33.43336158 -5.15788906 30.80180253 -5.125 26 C-5.11082031 25.06414062 -5.09664063 24.12828125 -5.08203125 23.1640625 C-5.43665565 18.87250623 -6.72944337 16.11707207 -9.375 12.75 C-17.63816176 6.06914581 -27.08233711 5.94073147 -35.1875 12.8125 Z " fill="#1E2225" transform="translate(308.3125,104.625)"/>
<path d="M0 0 C3.5937443 0.09176247 5.63818871 0.5080335 8.57739258 2.61474609 C10.53970858 4.88231125 12.23240761 7.17148736 13.87426758 9.67724609 C14.53426758 10.33724609 15.19426758 10.99724609 15.87426758 11.67724609 C16.42856445 10.96697266 16.98286133 10.25669922 17.55395508 9.52490234 C18.64063477 8.14625 18.64063477 8.14625 19.74926758 6.73974609 C20.46856445 5.82322266 21.18786133 4.90669922 21.92895508 3.96240234 C23.87426758 1.67724609 23.87426758 1.67724609 25.87426758 0.67724609 C28.42584413 0.6055726 30.94899729 0.58416167 33.49926758 0.61474609 C34.55887695 0.62151367 34.55887695 0.62151367 35.63989258 0.62841797 C37.38472033 0.64020735 39.12950458 0.65814285 40.87426758 0.67724609 C40.40701382 5.29055437 39.56480279 7.57351478 36.31176758 10.86474609 C33.3033266 14.06521521 30.6093948 17.28543513 28.06176758 20.86474609 C24.46031711 25.92240435 20.67633337 30.80312619 16.82055664 35.66699219 C13.79205776 39.49151101 10.84258187 43.35932501 7.99536133 47.32177734 C6.87426758 48.67724609 6.87426758 48.67724609 4.87426758 49.67724609 C2.50024257 49.74840991 0.12426081 49.76133694 -2.25073242 49.73974609 C-3.53206055 49.73072266 -4.81338867 49.72169922 -6.13354492 49.71240234 C-7.61467773 49.695 -7.61467773 49.695 -9.12573242 49.67724609 C-9.87573242 47.98974609 -9.87573242 47.98974609 -10.12573242 45.67724609 C-8.44213867 43.27490234 -8.44213867 43.27490234 -6.12573242 40.67724609 C-4.76114679 38.83073386 -3.40705689 36.976422 -2.06323242 35.11474609 C0.22427045 31.94912312 2.52031658 28.79384788 4.87426758 25.67724609 C3.5388631 22.82248842 2.02397265 20.41167092 0.08911133 17.92724609 C-0.44133789 17.23630859 -0.97178711 16.54537109 -1.51831055 15.83349609 C-2.63305791 14.394103 -3.75025503 12.95660386 -4.86987305 11.52099609 C-5.3990332 10.83005859 -5.92819336 10.13912109 -6.47338867 9.42724609 C-6.95815674 8.80333984 -7.4429248 8.17943359 -7.94238281 7.53662109 C-9.19946355 5.56139375 -9.78230099 3.98777132 -10.12573242 1.67724609 C-7.79492276 -0.65356357 -3.13421317 0.07936595 0 0 Z " fill="#1E2326" transform="translate(330.125732421875,112.32275390625)"/>
<path d="M0 0 C1.98 0 3.96 0 6 0 C5.61506667 5.30802806 2.65830516 8.34405004 -0.625 12.25 C-1.72699023 13.59209682 -2.82855504 14.93454307 -3.9296875 16.27734375 C-4.72777832 17.24196533 -4.72777832 17.24196533 -5.54199219 18.22607422 C-7.32031174 20.38971619 -9.04245778 22.59269511 -10.75 24.8125 C-13.02622763 27.7601329 -15.34410679 30.66800204 -17.6875 33.5625 C-21.17572801 37.89921591 -24.4989611 42.34252282 -27.8125 46.8125 C-31.55547396 51.85313238 -35.39383644 56.7505771 -39.5 61.5 C-44.01159774 66.72523282 -48.18704277 72.14308952 -52.29541016 77.68945312 C-56.8041524 83.77094476 -61.43841722 89.74855176 -66.10473633 95.7097168 C-66.65540771 96.41394775 -67.2060791 97.11817871 -67.7734375 97.84375 C-68.30984863 98.52630859 -68.84625977 99.20886719 -69.39892578 99.91210938 C-70.50257247 101.35132659 -71.5776766 102.81273122 -72.62841797 104.29101562 C-73.14807129 105.01998047 -73.66772461 105.74894531 -74.203125 106.5 C-74.66106445 107.16 -75.11900391 107.82 -75.59082031 108.5 C-77 110 -77 110 -80.375 110.5 C-81.24125 110.335 -82.1075 110.17 -83 110 C-82.77933573 106.35903962 -81.70182705 104.44109811 -79.328125 101.81640625 C-75.97987192 98.01591513 -72.92305093 94.04278679 -69.875 90 C-65.5922533 84.35705442 -61.25623392 78.76710658 -56.8125 73.25 C-52.27352423 67.61178727 -47.81755322 61.91846124 -43.421875 56.16796875 C-41.4070381 53.53243209 -39.38278146 50.90453529 -37.35424805 48.27954102 C-32.02657629 41.37949186 -26.78773913 34.41434591 -21.56640625 27.43359375 C-21.11668457 26.83530762 -20.66696289 26.23702148 -20.20361328 25.62060547 C-19.20484659 24.27581575 -18.23693387 22.90817522 -17.27734375 21.53515625 C-16.85582031 21.02855469 -16.43429688 20.52195312 -16 20 C-15.34 20 -14.68 20 -14 20 C-13.773125 19.31550781 -13.54625 18.63101563 -13.3125 17.92578125 C-11.66571281 14.25481814 -9.46488786 11.34607773 -7 8.1875 C-6.54882812 7.59001953 -6.09765625 6.99253906 -5.6328125 6.37695312 C-4.47362397 4.87652419 -3.24186081 3.43275496 -2 2 C-1.34 2 -0.68 2 0 2 C0 1.34 0 0.68 0 0 Z " fill="#141318" transform="translate(215,80)"/>
<path d="M0 0 C4.62 0 9.24 0 14 0 C16.25025958 5.62564896 16.25025958 5.62564896 16.15112305 9.49902344 C16.13417892 10.35631042 16.1172348 11.21359741 16.09977722 12.09686279 C16.07071793 13.00849182 16.04165863 13.92012085 16.01171875 14.859375 C15.98906448 15.80435852 15.96641022 16.74934204 15.94306946 17.72296143 C15.89323576 19.71338834 15.83829163 21.70369305 15.77856445 23.69384766 C15.68741843 26.75273757 15.61292347 29.81169704 15.54101562 32.87109375 C15.49055694 34.80471315 15.43915765 36.73830829 15.38671875 38.671875 C15.36373215 39.59160095 15.34074554 40.5113269 15.31706238 41.45892334 C15.11625313 47.88374687 15.11625313 47.88374687 14 49 C11.83519203 49.0989294 9.66706215 49.129711 7.5 49.125 C6.3140625 49.12757813 5.128125 49.13015625 3.90625 49.1328125 C1 49 1 49 0 48 C-0.09311889 46.49581261 -0.11746028 44.98728644 -0.11352539 43.48022461 C-0.11344986 42.51930405 -0.11337433 41.55838348 -0.11329651 40.56834412 C-0.10813522 39.523564 -0.10297394 38.47878387 -0.09765625 37.40234375 C-0.0962413 36.33834854 -0.09482635 35.27435333 -0.09336853 34.17811584 C-0.08775064 30.76454917 -0.07519511 27.351047 -0.0625 23.9375 C-0.05748731 21.62955824 -0.052924 19.32161545 -0.04882812 17.01367188 C-0.03777539 11.34242289 -0.02049877 5.6712224 0 0 Z " fill="#1E2225" transform="translate(376,113)"/>
<path d="M0 0 C1.77503906 0.03480469 1.77503906 0.03480469 3.5859375 0.0703125 C5.36871094 0.09738281 5.36871094 0.09738281 7.1875 0.125 C8.10273438 0.14820312 9.01796875 0.17140625 9.9609375 0.1953125 C11.53962288 4.98549501 10.20543695 7.599283 8.0234375 12.0078125 C7.45753906 13.16925781 6.89164062 14.33070312 6.30859375 15.52734375 C5.86386719 16.40777344 5.41914063 17.28820312 4.9609375 18.1953125 C4.6309375 17.2053125 4.3009375 16.2153125 3.9609375 15.1953125 C3.3009375 15.1953125 2.6409375 15.1953125 1.9609375 15.1953125 C1.50198943 16.71596044 1.04381536 18.23684198 0.5859375 19.7578125 C0.31136719 20.66660156 0.03679687 21.57539063 -0.24609375 22.51171875 C-0.9022566 24.73232899 -1.51005924 26.95706415 -2.1015625 29.1953125 C-3.0390625 32.1953125 -3.0390625 32.1953125 -5.0390625 34.1953125 C-5.71691242 36.52542159 -6.38323043 38.85891074 -7.0390625 41.1953125 C-7.6990625 42.1853125 -8.3590625 43.1753125 -9.0390625 44.1953125 C-10.04549 45.85810577 -11.04491657 47.52514734 -12.0390625 49.1953125 C-13.0390625 50.86197917 -14.0390625 52.52864583 -15.0390625 54.1953125 C-17.82540004 52.80214373 -17.97398944 51.03550734 -19.0390625 48.1953125 C-19.3690625 47.8653125 -19.6990625 47.5353125 -20.0390625 47.1953125 C-20.47693963 43.34199376 -20.40485971 41.70270864 -18.1015625 38.5078125 C-17.4209375 37.7446875 -16.7403125 36.9815625 -16.0390625 36.1953125 C-15.7090625 35.2053125 -15.3790625 34.2153125 -15.0390625 33.1953125 C-14.3790625 33.1953125 -13.7190625 33.1953125 -13.0390625 33.1953125 C-12.10482605 30.18499506 -11.99456339 29.32880982 -13.0390625 26.1953125 C-12.0490625 25.8653125 -11.0590625 25.5353125 -10.0390625 25.1953125 C-10.01328125 24.37289062 -9.9875 23.55046875 -9.9609375 22.703125 C-8.83628325 0.56788453 -8.83628325 0.56788453 0 0 Z " fill="#1E2326" transform="translate(474.0390625,112.8046875)"/>
<path d="M0 0 C1.96936523 0.04737305 1.96936523 0.04737305 3.97851562 0.09570312 C7.21711009 0.17814008 10.4511694 0.29317672 13.6875 0.4375 C13.8501158 9.42598674 13.97428181 18.41396267 14.0501852 27.4036026 C14.0866267 31.57851841 14.13600555 35.7524236 14.21557617 39.92675781 C14.29196818 43.95985249 14.33355854 47.99197894 14.3516407 52.02574158 C14.36451611 53.55996434 14.3896602 55.09413758 14.4276104 56.62794495 C14.74846952 70.14060985 14.74846952 70.14060985 10.29711914 75.28710938 C9.12396506 76.37070919 7.92338475 77.42603179 6.6875 78.4375 C5.883125 79.2625 5.07875 80.0875 4.25 80.9375 C3.734375 81.4325 3.21875 81.9275 2.6875 82.4375 C2 80.125 2 80.125 1.6875 77.4375 C3 75.625 3 75.625 4.6875 74.4375 C5.3475 74.4375 6.0075 74.4375 6.6875 74.4375 C8.87831991 70.89738244 8.93026619 68.04224128 8.91455078 63.92480469 C8.91484283 63.28048492 8.91513489 62.63616516 8.91543579 61.97232056 C8.91404694 59.85119979 8.89850716 57.7304341 8.8828125 55.609375 C8.87908078 54.13535758 8.87623456 52.66133768 8.87423706 51.18731689 C8.86661311 47.31405753 8.84697535 43.44094895 8.8248291 39.56774902 C8.80434394 35.6128951 8.79522964 31.65801673 8.78515625 27.703125 C8.76372819 19.94784007 8.72855625 12.1927104 8.6875 4.4375 C1.0975 4.4375 -6.4925 4.4375 -14.3125 4.4375 C-14.3125 5.7575 -14.3125 7.0775 -14.3125 8.4375 C-15.09625 8.623125 -15.88 8.80875 -16.6875 9 C-17.55375 9.474375 -18.42 9.94875 -19.3125 10.4375 C-19.621875 11.530625 -19.93125 12.62375 -20.25 13.75 C-21.64850564 18.60363722 -23.23151144 19.58080801 -27.3125 22.4375 C-29.6875 23.75 -29.6875 23.75 -31.3125 24.4375 C-29.6270591 20.56757703 -27.0942323 17.41459353 -24.5 14.125 C-23.63805785 13.02573036 -22.77738334 11.92546558 -21.91796875 10.82421875 C-21.49791061 10.30727951 -21.07785248 9.79034027 -20.64506531 9.25773621 C-19.26901698 7.50628535 -19.26901698 7.50628535 -18.46748352 5.59089661 C-14.68593537 -1.93588974 -7.41668311 -0.33628209 0 0 Z " fill="#1C1F23" transform="translate(222.3125,99.5625)"/>
<path d="M0 0 C0.99 0.33 1.98 0.66 3 1 C3.33 2.98 3.66 4.96 4 7 C5.2375 6.9175 6.475 6.835 7.75 6.75 C11.10506698 6.7262052 11.75447904 6.80358323 14.5 9 C14.995 9.66 15.49 10.32 16 11 C16.474375 10.34 16.94875 9.68 17.4375 9 C20.72673533 6.43279194 22.82318733 6.55956693 26.87890625 6.56640625 C29.44124297 7.09019884 30.35452013 8.01806418 32 10 C31.67 10.99 31.34 11.98 31 13 C28.36 13 25.72 13 23 13 C27.455 14.98 27.455 14.98 32 17 C32.48 22.4 32.48 22.4 30.5 24.875 C26.78412956 26.5471417 24.07220491 26.32319087 20 26 C19.01 25.34 18.02 24.68 17 24 C17.33 22.35 17.66 20.7 18 19 C18.99 19 19.98 19 21 19 C20.01 18.01 19.02 17.02 18 16 C17.566875 17.093125 17.13375 18.18625 16.6875 19.3125 C15.55875735 22.16123146 14.53067044 24.20174822 12 26 C8.8984375 26.328125 8.8984375 26.328125 5.375 26.25 C3.62316406 26.22679687 3.62316406 26.22679687 1.8359375 26.203125 C-1 26 -1 26 -2 25 C-2.26799383 22.47192485 -2.47431302 19.97316892 -2.625 17.4375 C-2.66858643 16.71038818 -2.71217285 15.98327637 -2.75708008 15.23413086 C-3.01249548 10.35170416 -3.07723341 5.79858518 -2 1 C-1.34 0.67 -0.68 0.34 0 0 Z M3 14 C2.83312552 16.58354218 2.83312552 16.58354218 3 19 C5.2806707 20.21297649 5.2806707 20.21297649 8 21 C10.2857711 20.23396041 10.2857711 20.23396041 12 19 C12.16687448 16.58354218 12.16687448 16.58354218 12 14 C10.17296773 11.7508092 10.17296773 11.7508092 7.5 11.75 C4.82703227 11.7508092 4.82703227 11.7508092 3 14 Z " fill="#252528" transform="translate(396,165)"/>
<path d="M0 0 C1.98 0.495 1.98 0.495 4 1 C4.66 6.61 5.32 12.22 6 18 C8.97 18 11.94 18 15 18 C15.165 17.21625 15.33 16.4325 15.5 15.625 C17 13 17 13 18.9140625 12.22265625 C20.92516699 11.73586948 22.962638 11.36146745 25 11 C22.03 11 19.06 11 16 11 C16.375 8.5625 16.375 8.5625 17 6 C19.32686453 4.83656773 20.84721413 4.80104012 23.4375 4.75 C24.61119141 4.71132812 24.61119141 4.71132812 25.80859375 4.671875 C28.53677498 5.08037272 29.3441611 5.83272461 31 8 C32.89455962 13.68367887 32.14711018 18.49803017 30 24 C24.58264203 24.93402724 21.19548425 25.20808081 16 23 C15.67 23.33 15.34 23.66 15 24 C12.69006618 24.12557162 10.37581464 24.17575729 8.0625 24.1875 C6.79535156 24.20167969 5.52820313 24.21585938 4.22265625 24.23046875 C1 24 1 24 -1 22 C-1.24291992 19.86108398 -1.24291992 19.86108398 -1.23046875 17.24609375 C-1.22853516 16.30958984 -1.22660156 15.37308594 -1.22460938 14.40820312 C-1.21236328 13.42787109 -1.20011719 12.44753906 -1.1875 11.4375 C-1.18685547 10.45330078 -1.18621094 9.46910156 -1.18554688 8.45507812 C-1.14017532 1.14017532 -1.14017532 1.14017532 0 0 Z M21 17 C21 17.66 21 18.32 21 19 C22.65 18.67 24.3 18.34 26 18 C26 17.67 26 17.34 26 17 C24.35 17 22.7 17 21 17 Z " fill="#141317" transform="translate(360,167)"/>
<path d="M0 0 C0 2.31 0 4.62 0 7 C-0.66 7 -1.32 7 -2 7 C-2 7.66 -2 8.32 -2 9 C-2.49113281 9.36738281 -2.98226562 9.73476562 -3.48828125 10.11328125 C-5.90028816 13.12361545 -5.31282429 16.50810751 -5.1875 20.1875 C-5.17396484 20.93708984 -5.16042969 21.68667969 -5.14648438 22.45898438 C-5.11118539 24.30629767 -5.05737917 26.15324066 -5 28 C-3.84105225 27.95456055 -3.84105225 27.95456055 -2.65869141 27.90820312 C1.01902793 27.76702388 4.69692197 27.63144263 8.375 27.5 C9.37959259 27.46398682 9.37959259 27.46398682 10.40447998 27.42724609 C21.24789511 27.04687753 32.07222062 26.91502424 42.92333984 27.03710938 C44.43468506 27.04967773 44.43468506 27.04967773 45.9765625 27.0625 C47.29261475 27.07990234 47.29261475 27.07990234 48.63525391 27.09765625 C50.9029839 27.00400645 52.82882149 26.63884083 55 26 C55.99 27.485 55.99 27.485 57 29 C55.87600708 30.47772217 55.87600708 30.47772217 54 32 C51.29220581 32.36749268 51.29220581 32.36749268 47.98388672 32.35644531 C46.12713821 32.36094696 46.12713821 32.36094696 44.23287964 32.36553955 C42.88181136 32.35353569 41.53074726 32.34105279 40.1796875 32.328125 C38.7963176 32.3250673 37.41294462 32.32319126 36.02957153 32.32244873 C33.13271272 32.31784798 30.23613225 32.30342875 27.33935547 32.28125 C23.61889108 32.25291486 19.89864546 32.24203306 16.17808342 32.2375679 C13.32314856 32.23341998 10.46825827 32.22360866 7.6133461 32.21169281 C6.24096154 32.20598116 4.86857267 32.20122543 3.49618149 32.19742584 C1.58320305 32.19058275 -0.32974332 32.17605621 -2.24267578 32.16113281 C-3.3328299 32.15430481 -4.42298401 32.14747681 -5.5461731 32.14044189 C-8 32 -8 32 -9 31 C-10.07639798 21.97814696 -11.00652936 11.39134908 -5.625 3.6875 C-2.4973822 0 -2.4973822 0 0 0 Z " fill="#1B1D20" transform="translate(165,158)"/>
<path d="M0 0 C4.62 0 9.24 0 14 0 C16.25025958 5.62564896 16.25025958 5.62564896 16.15112305 9.49902344 C16.13417892 10.35631042 16.1172348 11.21359741 16.09977722 12.09686279 C16.07071793 13.00849182 16.04165863 13.92012085 16.01171875 14.859375 C15.98906448 15.80435852 15.96641022 16.74934204 15.94306946 17.72296143 C15.89323576 19.71338834 15.83829163 21.70369305 15.77856445 23.69384766 C15.68741843 26.75273757 15.61292347 29.81169704 15.54101562 32.87109375 C15.49055694 34.80471315 15.43915765 36.73830829 15.38671875 38.671875 C15.36373215 39.59160095 15.34074554 40.5113269 15.31706238 41.45892334 C15.11625313 47.88374687 15.11625313 47.88374687 14 49 C11.83519203 49.0989294 9.66706215 49.129711 7.5 49.125 C6.3140625 49.12757813 5.128125 49.13015625 3.90625 49.1328125 C1 49 1 49 0 48 C-0.09268999 46.64905018 -0.11747326 45.29332909 -0.11352539 43.93920898 C-0.11344986 43.07839218 -0.11337433 42.21757538 -0.11329651 41.33067322 C-0.10813522 40.39526199 -0.10297394 39.45985077 -0.09765625 38.49609375 C-0.0962413 37.54307877 -0.09482635 36.59006378 -0.09336853 35.60816956 C-0.08775152 32.55124835 -0.07519616 29.49439923 -0.0625 26.4375 C-0.05748719 24.37044376 -0.05292391 22.30338638 -0.04882812 20.23632812 C-0.03777656 15.15752412 -0.02050055 10.0787743 0 5 C0.66 5 1.32 5 2 5 C2.33 18.2 2.66 31.4 3 45 C5.64 45 8.28 45 11 45 C11.02901394 41.5625177 11.04680335 38.12506688 11.0625 34.6875 C11.07087891 33.71103516 11.07925781 32.73457031 11.08789062 31.72851562 C11.09111328 30.79072266 11.09433594 29.85292969 11.09765625 28.88671875 C11.10289307 28.02264404 11.10812988 27.15856934 11.11352539 26.26831055 C11.09335523 23.83271286 11.09335523 23.83271286 10 21 C10.07006836 19.09887695 10.07006836 19.09887695 10.33984375 16.98828125 C10.43330078 16.23095703 10.52675781 15.47363281 10.62304688 14.69335938 C10.72681641 13.90767578 10.83058594 13.12199219 10.9375 12.3125 C11.03740234 11.51521484 11.13730469 10.71792969 11.24023438 9.89648438 C11.48748847 7.93022565 11.74295637 5.96500294 12 4 C8.04 4 4.08 4 0 4 C0 2.68 0 1.36 0 0 Z " fill="#121417" transform="translate(376,113)"/>
<path d="M0 0 C1.32 0 2.64 0 4 0 C6 2.23046875 6 2.23046875 8 5.1875 C10.01373016 8.12550085 11.9877096 10.98504242 14.25 13.73828125 C16 16 16 16 16 18 C16.66 18 17.32 18 18 18 C17.67 19.32 17.34 20.64 17 22 C5.96174562 23.32619804 5.96174562 23.32619804 1 22 C-2.67794665 18.83231792 -4.86314476 15.3299435 -7 11 C-2.06500956 2.15105163 -2.06500956 2.15105163 0 0 Z " fill="#16191A" transform="translate(354,140)"/>
<path d="M0 0 C0 3 0 3 -1 5 C-0.67 5.99 -0.34 6.98 0 8 C0.08888831 9.97842761 0.11760873 11.95976634 0.11352539 13.94018555 C0.11341209 15.77174446 0.11341209 15.77174446 0.11329651 17.64030457 C0.10813522 18.95912125 0.10297394 20.27793793 0.09765625 21.63671875 C0.0957908 23.00006559 0.0943675 24.36341311 0.09336853 25.72676086 C0.08955332 29.31228491 0.07973155 32.89776835 0.06866455 36.48327637 C0.05842901 40.1431422 0.05386632 43.8030146 0.04882812 47.46289062 C0.03810838 54.64194773 0.02051965 61.820963 0 69 C8.58 69.66 17.16 70.32 26 71 C25.01 71.99 25.01 71.99 24 73 C21.8359375 72.9765625 21.8359375 72.9765625 19.375 72.625 C18.55773437 72.51414062 17.74046875 72.40328125 16.8984375 72.2890625 C16.27195313 72.19367188 15.64546875 72.09828125 15 72 C15 72.66 15 73.32 15 74 C12.02077407 74.02683987 9.04178705 74.04676037 6.0625 74.0625 C5.21236328 74.07087891 4.36222656 74.07925781 3.48632812 74.08789062 C2.67744141 74.09111328 1.86855469 74.09433594 1.03515625 74.09765625 C0.2862915 74.10289307 -0.46257324 74.10812988 -1.23413086 74.11352539 C-3 74 -3 74 -4 73 C-4.11531876 70.87429688 -4.15970432 68.74472535 -4.17700195 66.6159668 C-4.18357315 65.94924957 -4.19014435 65.28253235 -4.19691467 64.59561157 C-4.21669121 62.38014627 -4.22832049 60.16474892 -4.23828125 57.94921875 C-4.24235678 57.19388163 -4.2464323 56.4385445 -4.25063133 55.66031837 C-4.27151177 51.66165055 -4.28580425 47.66301724 -4.29516602 43.66430664 C-4.3062281 39.53134865 -4.34061936 35.39892946 -4.38033772 31.26616192 C-4.40647328 28.09114067 -4.41485514 24.91624828 -4.41844749 21.74112892 C-4.42332231 20.21767352 -4.43496184 18.69422422 -4.45348549 17.17087364 C-4.47781123 15.03755346 -4.47692489 12.90563295 -4.4699707 10.7722168 C-4.47583694 9.55833786 -4.48170319 8.34445892 -4.48774719 7.09379578 C-3.91133483 3.43759402 -2.84368521 2.27528726 0 0 Z " fill="#0E1014" transform="translate(117,96)"/>
<path d="M0 0 C0.66 0 1.32 0 2 0 C2.66062572 6.08576419 0.32334216 10.59449983 -2.125 16 C-2.95884599 17.87867879 -3.79217835 19.75758564 -4.625 21.63671875 C-5.03363281 22.55114746 -5.44226563 23.46557617 -5.86328125 24.40771484 C-6.85073625 26.65960427 -7.78661209 28.91951549 -8.6875 31.20703125 C-11.66416939 38.67297106 -14.80040092 46.30226281 -22.28125 50.18359375 C-25.59146996 51.17761095 -28.48271977 51.30124664 -31.9375 51.3125 C-33.12214844 51.32925781 -34.30679687 51.34601563 -35.52734375 51.36328125 C-39.30089716 50.96852257 -41.73791176 49.88752892 -45 48 C-44.5317879 43.22423661 -43.75668002 39.95523655 -41 36 C-40.01 36.33 -39.02 36.66 -38 37 C-38.66 37 -39.32 37 -40 37 C-40 37.66 -40 38.32 -40 39 C-39.34 39.33 -38.68 39.66 -38 40 C-38.66 40 -39.32 40 -40 40 C-39.814375 40.61875 -39.62875 41.2375 -39.4375 41.875 C-39 44 -39 44 -40 46 C-37.7722603 46.22307542 -35.54268636 46.42788178 -33.3125 46.625 C-32.07113281 46.74101562 -30.82976562 46.85703125 -29.55078125 46.9765625 C-25.96011528 47.00026327 -24.05476974 46.84781526 -21 45 C-19.25068305 42.60892943 -19.25068305 42.60892943 -17.9375 39.75 C-14.72315436 33.42072148 -14.72315436 33.42072148 -12.6875 30.5 C-10.86410131 28.04006657 -10.86410131 28.04006657 -10 25 C-9.67 25 -9.34 25 -9 25 C-8.814375 23.2984375 -8.814375 23.2984375 -8.625 21.5625 C-8.41875 20.386875 -8.2125 19.21125 -8 18 C-7.34 17.67 -6.68 17.34 -6 17 C-5.59270772 14.67843403 -5.25561323 12.3431213 -5 10 C-4.34 10 -3.68 10 -3 10 C-3.061875 9.278125 -3.12375 8.55625 -3.1875 7.8125 C-2.96253379 4.43800685 -2.00130237 2.69406089 0 0 Z " fill="#0E0F12" transform="translate(476,128)"/>
<path d="M0 0 C1.22882904 0.02361099 2.45765808 0.04722198 3.72372437 0.07154846 C7.61543056 0.147595 11.50690739 0.2318706 15.3984375 0.31640625 C18.05077035 0.36968611 20.7031141 0.42242601 23.35546875 0.47460938 C29.82826424 0.60312947 36.30089189 0.73839063 42.7734375 0.87890625 C43.2684375 3.35390625 43.2684375 3.35390625 43.7734375 5.87890625 C42.7834375 4.88890625 42.7834375 4.88890625 41.7734375 3.87890625 C41.1134375 5.19890625 40.4534375 6.51890625 39.7734375 7.87890625 C39.7734375 6.88890625 39.7734375 5.89890625 39.7734375 4.87890625 C35.21096157 4.84855512 30.64849457 4.82872147 26.0859375 4.81640625 C25.39803131 4.81446259 24.71012512 4.81251892 24.00137329 4.81051636 C12.215236 4.78745552 0.46496181 5.08119147 -11.30932617 5.61108398 C-12.45377197 5.65950439 -13.59821777 5.7079248 -14.77734375 5.7578125 C-15.78450439 5.80494385 -16.79166504 5.8520752 -17.8293457 5.90063477 C-20.2265625 5.87890625 -20.2265625 5.87890625 -22.2265625 4.87890625 C-22.5565625 5.53890625 -22.8865625 6.19890625 -23.2265625 6.87890625 C-23.89322917 8.21223958 -24.55989583 9.54557292 -25.2265625 10.87890625 C-25.8865625 10.87890625 -26.5465625 10.87890625 -27.2265625 10.87890625 C-27.2265625 11.53890625 -27.2265625 12.19890625 -27.2265625 12.87890625 C-30.6915625 14.36390625 -30.6915625 14.36390625 -34.2265625 15.87890625 C-32.61204619 12.33874288 -30.55464201 9.30521259 -28.2265625 6.19140625 C-27.5253125 5.21816406 -26.8240625 4.24492188 -26.1015625 3.2421875 C-19.48666431 -2.19533071 -8.1430914 -0.18762932 0 0 Z " fill="#121619" transform="translate(153.2265625,79.12109375)"/>
<path d="M0 0 C0.33 0.66 0.66 1.32 1 2 C1.60328125 1.9278125 2.2065625 1.855625 2.828125 1.78125 C4.02695312 1.64203125 4.02695312 1.64203125 5.25 1.5 C6.43335938 1.36078125 6.43335938 1.36078125 7.640625 1.21875 C10 1 10 1 14 1 C14 1.99 14 2.98 14 4 C16.64 4 19.28 4 22 4 C22 4.33 22 4.66 22 5 C20.02 5.33 18.04 5.66 16 6 C16.66 6.33 17.32 6.66 18 7 C21.78420269 12.04560359 22.48771749 17.92630492 23.5 24 C23.7475 24.99 23.7475 24.99 24 26 C24.66 26.33 25.32 26.66 26 27 C26.70503086 28.65080396 27.3655338 30.32081125 28 32 C29.29735512 34.51608265 30.63029046 37.00978583 31.9765625 39.5 C33.08189621 42.20005182 33.19595979 44.11217159 33 47 C32.01 47.495 32.01 47.495 31 48 C30.72849121 47.34104736 30.45698242 46.68209473 30.17724609 46.00317383 C23.45773898 29.59544469 23.45773898 29.59544469 16.05859375 13.48828125 C14.99495385 10.98813875 14.42917174 8.67629569 14 6 C13.34 6 12.68 6 12 6 C12.20625 7.11375 12.4125 8.2275 12.625 9.375 C12.74875 10.57125 12.8725 11.7675 13 13 C11 15 11 15 8.3984375 15.1953125 C7.40070313 15.17210938 6.40296875 15.14890625 5.375 15.125 C3.87066406 15.09792969 3.87066406 15.09792969 2.3359375 15.0703125 C1.56507813 15.04710938 0.79421875 15.02390625 0 15 C0.33 16.32 0.66 17.64 1 19 C0.34 19 -0.32 19 -1 19 C-1.75 16.25 -1.75 16.25 -2 13 C-0.0625 10.625 -0.0625 10.625 2 9 C2.66 9.33 3.32 9.66 4 10 C4.33 9.34 4.66 8.68 5 8 C5.66 8.33 6.32 8.66 7 9 C7.33 7.35 7.66 5.7 8 4 C5.36 3.67 2.72 3.34 0 3 C0 2.01 0 1.02 0 0 Z " fill="#131519" transform="translate(418,112)"/>
<path d="M0 0 C4.6 2.2 4.6 2.2 6 5 C6.48153012 9.2535161 6.44716755 11.3220363 4.0625 14.9375 C-0.03924848 17.69990204 -3.18941423 17.93339724 -8 17 C-10.5625 15.5625 -10.5625 15.5625 -12 13 C-12.5977143 9.86774718 -12.65395074 7.12634344 -12 4 C-8.53945052 -0.29947057 -5.33501021 -0.66687628 0 0 Z " fill="#0B0C0F" transform="translate(387,92)"/>
<path d="M0 0 C1.17369141 -0.02513672 1.17369141 -0.02513672 2.37109375 -0.05078125 C5.02377163 0.38896749 5.885467 1.26878454 7.5625 3.3125 C7.2325 4.3025 6.9025 5.2925 6.5625 6.3125 C3.9225 6.3125 1.2825 6.3125 -1.4375 6.3125 C3.0175 8.2925 3.0175 8.2925 7.5625 10.3125 C8.0425 15.7125 8.0425 15.7125 6.0625 18.1875 C2.34662956 19.8596417 -0.36529509 19.63569087 -4.4375 19.3125 C-5.4275 18.6525 -6.4175 17.9925 -7.4375 17.3125 C-7.1075 15.6625 -6.7775 14.0125 -6.4375 12.3125 C-5.4475 12.3125 -4.4575 12.3125 -3.4375 12.3125 C-4.4275 11.3225 -5.4175 10.3325 -6.4375 9.3125 C-7.0975 11.2925 -7.7575 13.2725 -8.4375 15.3125 C-8.7675 14.3225 -9.0975 13.3325 -9.4375 12.3125 C-10.4275 12.3125 -11.4175 12.3125 -12.4375 12.3125 C-12.4375 10.6625 -12.4375 9.0125 -12.4375 7.3125 C-10.7875 6.9825 -9.1375 6.6525 -7.4375 6.3125 C-7.251875 5.384375 -7.251875 5.384375 -7.0625 4.4375 C-5.86023646 0.34980396 -3.89922399 0.019208 0 0 Z " fill="#252327" transform="translate(420.4375,171.6875)"/>
<path d="M0 0 C0.8971875 0.7425 0.8971875 0.7425 1.8125 1.5 C1.49701031 5.28587623 1.19303743 8.52487284 -0.1875 12.0625 C-3.20234858 14.22942242 -5.77606207 13.42526921 -9.32421875 12.859375 C-9.93910156 12.74078125 -10.55398438 12.6221875 -11.1875 12.5 C-11.1875 11.18 -11.1875 9.86 -11.1875 8.5 C-8.8775 8.5 -6.5675 8.5 -4.1875 8.5 C-4.1875 7.18 -4.1875 5.86 -4.1875 4.5 C-5.36119141 4.42652344 -5.36119141 4.42652344 -6.55859375 4.3515625 C-7.57050781 4.27679688 -8.58242188 4.20203125 -9.625 4.125 C-11.13900391 4.02058594 -11.13900391 4.02058594 -12.68359375 3.9140625 C-13.50988281 3.77742188 -14.33617187 3.64078125 -15.1875 3.5 C-15.5175 2.84 -15.8475 2.18 -16.1875 1.5 C-17.5075 3.15 -18.8275 4.8 -20.1875 6.5 C-20.8475 6.17 -21.5075 5.84 -22.1875 5.5 C-22.1875 6.16 -22.1875 6.82 -22.1875 7.5 C-22.1875 8.49 -22.1875 9.48 -22.1875 10.5 C-22.8475 10.5 -23.5075 10.5 -24.1875 10.5 C-24.1875 12.81 -24.1875 15.12 -24.1875 17.5 C-24.5175 17.5 -24.8475 17.5 -25.1875 17.5 C-25.31125 16.530625 -25.435 15.56125 -25.5625 14.5625 C-25.76875 13.551875 -25.975 12.54125 -26.1875 11.5 C-26.8475 11.17 -27.5075 10.84 -28.1875 10.5 C-25.74379459 4.84089273 -23.1358736 1.90398743 -17.5625 -0.75 C-11.61062407 -2.07263909 -5.60172404 -2.63610543 0 0 Z " fill="#191B1E" transform="translate(431.1875,95.5)"/>
<path d="M0 0 C0.99 0.66 1.98 1.32 3 2 C2.67 3.32 2.34 4.64 2 6 C0.35 6 -1.3 6 -3 6 C-3 6.66 -3 7.32 -3 8 C-2.34 8.33 -1.68 8.66 -1 9 C-1.99 9.33 -2.98 9.66 -4 10 C-5.45644757 12.08812458 -5.45644757 12.08812458 -6.6875 14.5625 C-7.12449219 15.38878906 -7.56148438 16.21507812 -8.01171875 17.06640625 C-8.33785156 17.70449219 -8.66398437 18.34257812 -9 19 C-4.44826045 19.67433179 -2.17969035 19.76195298 1.7578125 17.21875 C4.23997639 15.21038947 6.64816927 13.15905772 9 11 C9 14.76339198 7.93898713 15.72543245 5.625 18.625 C4.99851562 19.42164063 4.37203125 20.21828125 3.7265625 21.0390625 C2 23 2 23 0 24 C-2.37402501 24.07116382 -4.75000677 24.08409085 -7.125 24.0625 C-8.40632813 24.05347656 -9.68765625 24.04445312 -11.0078125 24.03515625 C-12.48894531 24.01775391 -12.48894531 24.01775391 -14 24 C-14.75 22.3125 -14.75 22.3125 -15 20 C-13.31640625 17.59765625 -13.31640625 17.59765625 -11 15 C-9.63541436 13.15348777 -8.28132447 11.29917591 -6.9375 9.4375 C-4.64999713 6.27187702 -2.353951 3.11660179 0 0 Z " fill="#0F1214" transform="translate(335,138)"/>
<path d="M0 0 C1.96936523 0.04737305 1.96936523 0.04737305 3.97851562 0.09570312 C7.21711009 0.17814008 10.4511694 0.29317672 13.6875 0.4375 C12.6875 2.4375 12.6875 2.4375 10.6875 3.4375 C8.80277141 3.59094209 6.91322126 3.68709571 5.0234375 3.75390625 C3.90195313 3.79580078 2.78046875 3.83769531 1.625 3.88085938 C0.449375 3.92017578 -0.72625 3.95949219 -1.9375 4 C-3.12085938 4.04318359 -4.30421875 4.08636719 -5.5234375 4.13085938 C-8.45300328 4.23717426 -11.38265588 4.33920642 -14.3125 4.4375 C-14.3125 5.7575 -14.3125 7.0775 -14.3125 8.4375 C-15.09625 8.623125 -15.88 8.80875 -16.6875 9 C-17.55375 9.474375 -18.42 9.94875 -19.3125 10.4375 C-19.621875 11.530625 -19.93125 12.62375 -20.25 13.75 C-21.64850564 18.60363722 -23.23151144 19.58080801 -27.3125 22.4375 C-29.6875 23.75 -29.6875 23.75 -31.3125 24.4375 C-29.6270591 20.56757703 -27.0942323 17.41459353 -24.5 14.125 C-23.63805785 13.02573036 -22.77738334 11.92546558 -21.91796875 10.82421875 C-21.47461182 10.27757568 -21.03125488 9.73093262 -20.57446289 9.16772461 C-19.25256791 7.46689256 -19.25256791 7.46689256 -18.37670898 5.47485352 C-14.55908296 -1.93064703 -7.39438144 -0.33527091 0 0 Z " fill="#101214" transform="translate(222.3125,99.5625)"/>
<path d="M0 0 C1.32 0.66 2.64 1.32 4 2 C1.15674977 10.05587566 -3.76340291 16.213635 -11.3125 20.23046875 C-17.36230945 22.98671418 -22.05036141 24.12949639 -28.75 24.0625 C-29.92046875 24.05347656 -31.0909375 24.04445312 -32.296875 24.03515625 C-33.18890625 24.02355469 -34.0809375 24.01195312 -35 24 C-34.01 22.515 -34.01 22.515 -33 21 C-30.3984375 20.70703125 -30.3984375 20.70703125 -27.375 20.8125 C-25.87066406 20.85310547 -25.87066406 20.85310547 -24.3359375 20.89453125 C-23.56507813 20.92933594 -22.79421875 20.96414062 -22 21 C-21.67 20.34 -21.34 19.68 -21 19 C-19.22265625 18.4375 -19.22265625 18.4375 -17.0625 18 C-14.09189285 17.39617423 -13.21308826 17.21308826 -11 15 C-10.401875 14.7525 -9.80375 14.505 -9.1875 14.25 C-4.71325352 11.69328773 -2.07828562 7.9878178 -0.6875 3.125 C-0.460625 2.09375 -0.23375 1.0625 0 0 Z " fill="#0E1113" transform="translate(314,139)"/>
<path d="M0 0 C1.32 0.33 2.64 0.66 4 1 C3.01 2.32 2.02 3.64 1 5 C2.32 4.67 3.64 4.34 5 4 C5.28875 4.969375 5.5775 5.93875 5.875 6.9375 C6.64214682 10.10664203 6.64214682 10.10664203 9 11 C9.73075648 13.3140622 10.40138258 15.64828869 11 18 C6.27021642 18.47297836 2.3672822 18.83439337 -1.5 15.75 C-4.69900445 12.23109511 -4.69900445 12.23109511 -5 9 C-4.00390625 7.1484375 -4.00390625 7.1484375 -2.5625 5.375 C-0.47036638 2.98715144 -0.47036638 2.98715144 0 0 Z " fill="#1F2326" transform="translate(354,140)"/>
<path d="M0 0 C0.66 0.99 1.32 1.98 2 3 C2.99 2.67 3.98 2.34 5 2 C5.12375 2.639375 5.2475 3.27875 5.375 3.9375 C5.684375 4.9584375 5.684375 4.9584375 6 6 C6.66 6.33 7.32 6.66 8 7 C8 7.66 8 8.32 8 9 C8.99 8.67 9.98 8.34 11 8 C13.37892085 11.63834954 12.70591479 13.85275059 12 18 C12.66 18.99 13.32 19.98 14 21 C13.113125 21.061875 12.22625 21.12375 11.3125 21.1875 C7.25096703 22.18372507 5.78955068 23.97798676 3 27 C2.34 27 1.68 27 1 27 C0.67 27.99 0.34 28.98 0 30 C-0.66 29.34 -1.32 28.68 -2 28 C-0.99066406 26.78763672 -0.99066406 26.78763672 0.0390625 25.55078125 C0.90199475 24.47211594 1.76392214 23.3926462 2.625 22.3125 C3.07101563 21.78205078 3.51703125 21.25160156 3.9765625 20.70507812 C5.42841081 18.93672761 5.42841081 18.93672761 7 16 C6.26105036 12.07433003 4.22673529 9.88080555 1.375 7.1875 C0.74335938 6.58292969 0.11171875 5.97835937 -0.5390625 5.35546875 C-1.02117187 4.90816406 -1.50328125 4.46085937 -2 4 C-1.34 2.68 -0.68 1.36 0 0 Z " fill="#15181C" transform="translate(145,113)"/>
<path d="M0 0 C1.22882904 0.02361099 2.45765808 0.04722198 3.72372437 0.07154846 C7.61543056 0.147595 11.50690739 0.2318706 15.3984375 0.31640625 C18.05077035 0.36968611 20.7031141 0.42242601 23.35546875 0.47460938 C29.82826424 0.60312947 36.30089189 0.73839063 42.7734375 0.87890625 C43.2684375 3.35390625 43.2684375 3.35390625 43.7734375 5.87890625 C42.7834375 4.88890625 42.7834375 4.88890625 41.7734375 3.87890625 C41.1134375 5.19890625 40.4534375 6.51890625 39.7734375 7.87890625 C39.7734375 6.22890625 39.7734375 4.57890625 39.7734375 2.87890625 C18.9834375 2.87890625 -1.8065625 2.87890625 -23.2265625 2.87890625 C-23.2265625 2.21890625 -23.2265625 1.55890625 -23.2265625 0.87890625 C-15.44738138 -0.12824018 -7.8329972 -0.18048427 0 0 Z " fill="#010508" transform="translate(153.2265625,79.12109375)"/>
<path d="M0 0 C13.07011572 -1.37848877 13.07011572 -1.37848877 17.70703125 1.93359375 C19.66463498 4.20354241 21.3587761 6.49521201 23 9 C23.66 9.66 24.32 10.32 25 11 C25.66 10.67 26.32 10.34 27 10 C26.34 11.32 25.68 12.64 25 14 C24.34 14 23.68 14 23 14 C22.67 14.33 22.34 14.66 22 15 C19.52109149 12.89292776 18.79124832 11.49551677 17.5 8.375 C16.59520593 6.45140389 16.59520593 6.45140389 15 5 C11.32753268 4.08188317 7.77463356 3.95444408 4 4 C4 4.99 4 5.98 4 7 C4.99 7.33 5.98 7.66 7 8 C7 8.66 7 9.32 7 10 C7.99 10.33 8.98 10.66 10 11 C10 11.66 10 12.32 10 13 C9.01 13.33 8.02 13.66 7 14 C5.63059432 12.42982807 4.27987105 10.84334609 2.9375 9.25 C2.18339844 8.36828125 1.42929687 7.4865625 0.65234375 6.578125 C-1 4 -1 4 -0.74609375 1.671875 C-0.49988281 1.12015625 -0.25367188 0.5684375 0 0 Z " fill="#0D0F11" transform="translate(321,113)"/>
<path d="M0 0 C0.66 0.33 1.32 0.66 2 1 C1.484375 1.969375 0.96875 2.93875 0.4375 3.9375 C-1.26334479 7.82966576 -0.97190585 10.77271577 -0.2265625 14.88671875 C0.02143587 17.19994496 -0.4008356 18.77257203 -1 21 C-0.61432869 23.68149993 -0.61432869 23.68149993 0 26 C0.66 26 1.32 26 2 26 C2 26.99 2 27.98 2 29 C2.99 29.33 3.98 29.66 5 30 C5 30.99 5 31.98 5 33 C5.99 33.66 6.98 34.32 8 35 C8 35.66 8 36.32 8 37 C9.32 37.33 10.64 37.66 12 38 C12 38.66 12 39.32 12 40 C16.29 40.66 20.58 41.32 25 42 C25 42.99 25 43.98 25 45 C21.65035056 46.08754852 20.22387221 46.08735791 16.88671875 44.78515625 C15.83097656 44.21667969 14.77523438 43.64820313 13.6875 43.0625 C12.61886719 42.49660156 11.55023438 41.93070313 10.44921875 41.34765625 C9.64097656 40.90292969 8.83273437 40.45820313 8 40 C8 39.34 8 38.68 8 38 C7.4225 37.773125 6.845 37.54625 6.25 37.3125 C1.80153137 34.71755997 -0.78120505 30.52863167 -2.4609375 25.7109375 C-3.21341691 21.92672943 -3.33057977 18.22639845 -3.375 14.375 C-3.38885742 13.64635742 -3.40271484 12.91771484 -3.41699219 12.16699219 C-3.3756377 7.38946013 -2.50160314 4.19581057 0 0 Z " fill="#0E1114" transform="translate(255,116)"/>
<path d="M0 0 C2.0625 0.4375 2.0625 0.4375 4 1 C4.12117188 2.21558594 4.24234375 3.43117187 4.3671875 4.68359375 C4.53597078 6.26828117 4.70526816 7.8529139 4.875 9.4375 C4.95363281 10.23994141 5.03226562 11.04238281 5.11328125 11.86914062 C5.33845763 13.92170994 5.66222587 15.96293009 6 18 C6.66 18.33 7.32 18.66 8 19 C6.68 19.99 5.36 20.98 4 22 C6.31 22.33 8.62 22.66 11 23 C11 23.33 11 23.66 11 24 C9.37536158 24.05395478 7.75021459 24.09277195 6.125 24.125 C5.22007812 24.14820313 4.31515625 24.17140625 3.3828125 24.1953125 C1 24 1 24 -1 22 C-1.24291992 19.86108398 -1.24291992 19.86108398 -1.23046875 17.24609375 C-1.22853516 16.30958984 -1.22660156 15.37308594 -1.22460938 14.40820312 C-1.21236328 13.42787109 -1.20011719 12.44753906 -1.1875 11.4375 C-1.18685547 10.45330078 -1.18621094 9.46910156 -1.18554688 8.45507812 C-1.14017532 1.14017532 -1.14017532 1.14017532 0 0 Z " fill="#222122" transform="translate(360,167)"/>
<path d="M0 0 C1.12894876 0.93274109 2.25300876 1.87140122 3.375 2.8125 C4.00148437 3.33457031 4.62796875 3.85664063 5.2734375 4.39453125 C7 6 7 6 9 9 C9 9.99 9 10.98 9 12 C5.39590081 12.05800828 1.79192149 12.09359869 -1.8125 12.125 C-3.34874023 12.15013672 -3.34874023 12.15013672 -4.91601562 12.17578125 C-5.89892578 12.18222656 -6.88183594 12.18867188 -7.89453125 12.1953125 C-8.80050049 12.20578613 -9.70646973 12.21625977 -10.63989258 12.22705078 C-13 12 -13 12 -16 10 C-15.67 9.01 -15.34 8.02 -15 7 C-9.72 7 -4.44 7 1 7 C0.34 5.02 -0.32 3.04 -1 1 C-0.67 0.67 -0.34 0.34 0 0 Z " fill="#131618" transform="translate(201,150)"/>
<path d="M0 0 C0.33 0 0.66 0 1 0 C1 10.56 1 21.12 1 32 C4.3 32 7.6 32 11 32 C11 33.32 11 34.64 11 36 C8.85423363 36.02685938 6.70837355 36.04633088 4.5625 36.0625 C3.36753906 36.07410156 2.17257812 36.08570313 0.94140625 36.09765625 C-2 36 -2 36 -3 35 C-4.08808374 29.3177849 -4.10452045 23.77185149 -4 18 C-3.01 18 -2.02 18 -1 18 C-0.505 9.09 -0.505 9.09 0 0 Z " fill="#151619" transform="translate(406,126)"/>
<path d="M0 0 C-1.8125 1.0625 -1.8125 1.0625 -4 2 C-4.99 1.67 -5.98 1.34 -7 1 C-7 2.32 -7 3.64 -7 5 C-4.36 5.33 -1.72 5.66 1 6 C1 6.66 1 7.32 1 8 C0.34 8 -0.32 8 -1 8 C-1 8.66 -1 9.32 -1 10 C-3.86511076 11.10196568 -4.95878852 11.01402944 -7.9375 10 C-11.33629391 8.89018974 -12.59890745 9.25341871 -16 10 C-19.75 9.6875 -19.75 9.6875 -23 9 C-23.33 8.34 -23.66 7.68 -24 7 C-19.89542386 4.01485372 -17.02254631 3.7045561 -12 4 C-12 3.34 -12 2.68 -12 2 C-4.71428571 -1.57142857 -4.71428571 -1.57142857 0 0 Z " fill="#2F2E32" transform="translate(387,181)"/>
<path d="M0 0 C0.69738281 0.01804687 1.39476562 0.03609375 2.11328125 0.0546875 C3.82611539 0.10161446 5.53823824 0.17335395 7.25 0.25 C6.79914768 5.18790639 5.59523076 7.55499635 2.1875 11.125 C1.45402344 11.90617187 0.72054688 12.68734375 -0.03515625 13.4921875 C-0.60105469 14.07226562 -1.16695313 14.65234375 -1.75 15.25 C-2.41 14.92 -3.07 14.59 -3.75 14.25 C-3.4375 11.875 -3.4375 11.875 -2.75 9.25 C-1.76 8.59 -0.77 7.93 0.25 7.25 C0.58 6.26 0.91 5.27 1.25 4.25 C-0.50128818 4.53382946 -2.25100003 4.82739529 -4 5.125 C-5.46179688 5.36863281 -5.46179688 5.36863281 -6.953125 5.6171875 C-9.52264117 6.19855848 -11.47071056 6.95840265 -13.75 8.25 C-10.79025201 1.34392135 -7.34830386 -0.36116427 0 0 Z " fill="#101113" transform="translate(363.75,112.75)"/>
<path d="M0 0 C0.66 0 1.32 0 2 0 C2 0.66 2 1.32 2 2 C2.66 2.33 3.32 2.66 4 3 C3.42121094 3.54914063 2.84242188 4.09828125 2.24609375 4.6640625 C-0.0941369 7.09790237 -1.98876942 9.61976508 -3.9375 12.375 C-6.18792485 15.51971681 -8.4337268 18.61474376 -10.9375 21.5625 C-13.00273555 23.80851145 -13.00273555 23.80851145 -14 26 C-15.32 25.34 -16.64 24.68 -18 24 C-17.33333333 22.33333333 -16.66666667 20.66666667 -16 19 C-15.5978125 17.63875 -15.5978125 17.63875 -15.1875 16.25 C-14.795625 15.5075 -14.40375 14.765 -14 14 C-11.4375 13.25 -11.4375 13.25 -9 13 C-7.34822227 11.34822227 -6.82747709 9.15144042 -6 7 C-5.34 7 -4.68 7 -4 7 C-3.71125 6.401875 -3.4225 5.80375 -3.125 5.1875 C-2 3 -2 3 0 0 Z " fill="#100F13" transform="translate(203,99)"/>
<path d="M0 0 C3.3 0.66 6.6 1.32 10 2 C10 4.64 10 7.28 10 10 C6.50971852 11.59555725 3.84597567 12.32049797 0 12 C-1.58272601 10.41727399 -1.34735747 8.61965997 -1.5625 6.4375 C-1.64628906 5.61121094 -1.73007812 4.78492187 -1.81640625 3.93359375 C-1.87699219 3.29550781 -1.93757813 2.65742187 -2 2 C-1.34 2 -0.68 2 0 2 C0 1.34 0 0.68 0 0 Z " fill="#1A1D1F" transform="translate(379,94)"/>
<path d="M0 0 C3 1 3 1 4.1328125 2.890625 C5.83778343 6.94496531 7.18692779 10.66361489 8 15 C8.66 15.33 9.32 15.66 10 16 C10.70503086 17.65080396 11.3655338 19.32081125 12 21 C13.29735512 23.51608265 14.63029046 26.00978583 15.9765625 28.5 C17.08189621 31.20005182 17.19595979 33.11217159 17 36 C16.01 36.495 16.01 36.495 15 37 C14.72325439 36.32533691 14.44650879 35.65067383 14.16137695 34.95556641 C12.88231521 31.84375957 11.59744402 28.73438226 10.3125 25.625 C9.65991211 24.03365234 9.65991211 24.03365234 8.99414062 22.41015625 C6.53561519 16.4732726 3.93433262 10.70682163 0.90698242 5.03662109 C0 3 0 3 0 0 Z " fill="#0F1015" transform="translate(434,123)"/>
<path d="M0 0 C12.87 0 25.74 0 39 0 C33.94948537 5.05051463 22.8824705 3.22186651 16.25 3.25 C14.40341797 3.2809375 14.40341797 3.2809375 12.51953125 3.3125 C11.34261719 3.31765625 10.16570312 3.3228125 8.953125 3.328125 C7.88223633 3.3374707 6.81134766 3.34681641 5.70800781 3.35644531 C3 3 3 3 0 0 Z " fill="#25282A" transform="translate(133,100)"/>
<path d="M0 0 C5.78408559 -0.0494009 11.56804864 -0.08572 17.35229492 -0.10986328 C19.32041564 -0.11992707 21.28852138 -0.13357934 23.2565918 -0.15087891 C26.08385918 -0.17511059 28.91092905 -0.18647923 31.73828125 -0.1953125 C32.61962234 -0.20563507 33.50096344 -0.21595764 34.40901184 -0.22659302 C35.22963608 -0.22674408 36.05026031 -0.22689514 36.89575195 -0.22705078 C37.61745071 -0.231492 38.33914948 -0.23593323 39.0827179 -0.24050903 C41 0 41 0 44 2 C44.375 4.4375 44.375 4.4375 44 7 C42.5 8.8125 42.5 8.8125 41 10 C40.01 9.01 39.02 8.02 38 7 C38.66 7 39.32 7 40 7 C40 6.34 40 5.68 40 5 C37.03 5 34.06 5 31 5 C31 4.67 31 4.34 31 4 C34.465 3.505 34.465 3.505 38 3 C18.695 2.505 18.695 2.505 -1 2 C-0.67 1.34 -0.34 0.68 0 0 Z " fill="#0F1517" transform="translate(132,98)"/>
<path d="M0 0 C0.33 0.66 0.66 1.32 1 2 C1.66 2 2.32 2 3 2 C3.33 1.34 3.66 0.68 4 0 C4.33 0.66 4.66 1.32 5 2 C3.71937515 3.7074998 2.38232443 5.37373596 1 7 C0.34 7 -0.32 7 -1 7 C-1 6.34 -1 5.68 -1 5 C-1.66 5 -2.32 5 -3 5 C-3.28875 5.598125 -3.5775 6.19625 -3.875 6.8125 C-5 9 -5 9 -7 12 C-7.66 12 -8.32 12 -9 12 C-9.68707555 14.49064888 -10 16.37886292 -10 19 C-11.65 19.33 -13.3 19.66 -15 20 C-14.45994624 15.83492783 -13.16934899 13.45554561 -10.5625 10.1875 C-9.94503906 9.39730469 -9.32757813 8.60710937 -8.69140625 7.79296875 C-7.85416016 6.90544922 -7.85416016 6.90544922 -7 6 C-6.34 6 -5.68 6 -5 6 C-4.67 5.01 -4.34 4.02 -4 3 C-1.9375 1.3125 -1.9375 1.3125 0 0 Z " fill="#1C1A1E" transform="translate(206,94)"/>
<path d="M0 0 C2 2 2 2 2.0625 4.5625 C2.041875 5.366875 2.02125 6.17125 2 7 C2.33 7.33 2.66 7.66 3 8 C3.08700342 9.63472882 3.10701063 11.27314055 3.09765625 12.91015625 C3.09443359 13.89951172 3.09121094 14.88886719 3.08789062 15.90820312 C3.07951172 16.94912109 3.07113281 17.99003906 3.0625 19.0625 C3.05798828 20.10728516 3.05347656 21.15207031 3.04882812 22.22851562 C3.03699913 24.8190666 3.02051689 27.40950559 3 30 C1.68 30.33 0.36 30.66 -1 31 C-1.0294191 27.52085157 -1.04693792 24.04173583 -1.0625 20.5625 C-1.07087891 19.58861328 -1.07925781 18.61472656 -1.08789062 17.61132812 C-1.10782078 11.65221031 -0.77609518 5.90932317 0 0 Z " fill="#090B0F" transform="translate(388,131)"/>
<path d="M0 0 C0.99 0 1.98 0 3 0 C1.67883746 2.80979639 0.1980349 5.22339001 -1.6875 7.6875 C-2.20957031 8.37199219 -2.73164063 9.05648437 -3.26953125 9.76171875 C-6.17100792 13.51464456 -9.07685788 17.26391303 -12 21 C-12.33 20.01 -12.66 19.02 -13 18 C-13.66 17.67 -14.32 17.34 -15 17 C-13.6875 15.5 -13.6875 15.5 -12 14 C-11.01 14 -10.02 14 -9 14 C-8.9175 13.0925 -8.835 12.185 -8.75 11.25 C-7.90186525 7.57474941 -6.83144634 6.38903285 -4 4 C-3.67 3.67 -3.34 3.34 -3 3 C-2.01 2.67 -1.02 2.34 0 2 C0 1.34 0 0.68 0 0 Z " fill="#181A1C" transform="translate(358,128)"/>
<path d="M0 0 C1.17369141 -0.02513672 1.17369141 -0.02513672 2.37109375 -0.05078125 C5.02377163 0.38896749 5.885467 1.26878454 7.5625 3.3125 C7.2325 4.3025 6.9025 5.2925 6.5625 6.3125 C5.2425 5.9825 3.9225 5.6525 2.5625 5.3125 C3.2225 4.6525 3.8825 3.9925 4.5625 3.3125 C3.57982141 2.10688816 3.57982141 2.10688816 1.71484375 2.21484375 C-0.3359375 2.24739583 -2.38671875 2.27994792 -4.4375 2.3125 C-4.85496608 5.18614791 -4.85496608 5.18614791 -4.4375 8.3125 C-2.04693058 10.2479148 -2.04693058 10.2479148 0.5625 11.3125 C-1.25 12 -1.25 12 -3.4375 12.3125 C-5.1875 10.875 -5.1875 10.875 -6.4375 9.3125 C-7.0975 11.2925 -7.7575 13.2725 -8.4375 15.3125 C-8.7675 14.3225 -9.0975 13.3325 -9.4375 12.3125 C-10.4275 12.3125 -11.4175 12.3125 -12.4375 12.3125 C-12.4375 10.6625 -12.4375 9.0125 -12.4375 7.3125 C-10.7875 6.9825 -9.1375 6.6525 -7.4375 6.3125 C-7.251875 5.384375 -7.251875 5.384375 -7.0625 4.4375 C-5.86023646 0.34980396 -3.89922399 0.019208 0 0 Z " fill="#131314" transform="translate(420.4375,171.6875)"/>
<path d="M0 0 C0.66 0.33 1.32 0.66 2 1 C1.45859375 1.81404297 1.45859375 1.81404297 0.90625 2.64453125 C0.4421875 3.35996094 -0.021875 4.07539063 -0.5 4.8125 C-0.9640625 5.52019531 -1.428125 6.22789062 -1.90625 6.95703125 C-3.23599375 9.05458124 -3.23599375 9.05458124 -3 12 C-2.01 12.33 -1.02 12.66 0 13 C0 13.66 0 14.32 0 15 C3.16245541 16.0541518 5.86948218 16.31275672 9.1875 16.5625 C10.27417969 16.64628906 11.36085938 16.73007813 12.48046875 16.81640625 C13.31191406 16.87699219 14.14335937 16.93757813 15 17 C15 17.33 15 17.66 15 18 C13.02 18.33 11.04 18.66 9 19 C9.33 19.66 9.66 20.32 10 21 C5.06735751 21.96891192 5.06735751 21.96891192 2 21 C-1.16868598 17.64397616 -3.59997847 13.93195016 -6 10 C-4.07119658 6.59244728 -2.1723491 3.25852365 0 0 Z " fill="#0E0F10" transform="translate(353,141)"/>
<path d="M0 0 C0.66 0.33 1.32 0.66 2 1 C2 1.66 2 2.32 2 3 C1.34 3.66 0.68 4.32 0 5 C0 5.99 0 6.98 0 8 C-0.78375 8.185625 -1.5675 8.37125 -2.375 8.5625 C-3.24125 9.036875 -4.1075 9.51125 -5 10 C-5.309375 11.093125 -5.61875 12.18625 -5.9375 13.3125 C-7.33600564 18.16613722 -8.91901144 19.14330801 -13 22 C-15.375 23.3125 -15.375 23.3125 -17 24 C-15.31441895 20.12975524 -12.78066344 16.97809242 -10.1875 13.6875 C-9.28685335 12.53195641 -8.38710516 11.37571195 -7.48828125 10.21875 C-7.05854004 9.66574219 -6.62879883 9.11273438 -6.18603516 8.54296875 C-4.04084929 5.75219586 -2.01373352 2.88635138 0 0 Z " fill="#1A1A1E" transform="translate(208,100)"/>
<path d="M0 0 C0.66 0.33 1.32 0.66 2 1 C1.67 2.32 1.34 3.64 1 5 C-8.57 5 -18.14 5 -28 5 C-28 4.34 -28 3.68 -28 3 C-27.29391602 2.98018066 -26.58783203 2.96036133 -25.86035156 2.93994141 C-22.65653006 2.84459585 -19.45335199 2.73495487 -16.25 2.625 C-15.13882813 2.5940625 -14.02765625 2.563125 -12.8828125 2.53125 C-11.81289062 2.49257812 -10.74296875 2.45390625 -9.640625 2.4140625 C-8.16384277 2.36693115 -8.16384277 2.36693115 -6.65722656 2.31884766 C-3.97756827 1.99730836 -2.36594308 1.21686384 0 0 Z " fill="#191B1E" transform="translate(214,167)"/>
<path d="M0 0 C2.35830786 3.53746179 3.97584017 7.18296639 5.6875 11.0625 C6.02072266 11.79533203 6.35394531 12.52816406 6.69726562 13.28320312 C7.52730376 15.16243708 8.27064895 17.07944523 9 19 C8.67 19.66 8.34 20.32 8 21 C6.68 21 5.36 21 4 21 C4 19.68 4 18.36 4 17 C3.34 17 2.68 17 2 17 C1 14 1 14 2 11 C1.34 11 0.68 11 0 11 C0.020625 10.0925 0.04125 9.185 0.0625 8.25 C0.01073123 5.5580237 -0.33569365 3.56232449 -1 1 C-0.67 0.67 -0.34 0.34 0 0 Z " fill="#101116" transform="translate(448,119)"/>
<path d="M0 0 C1.19109375 -0.03867188 1.19109375 -0.03867188 2.40625 -0.078125 C3.0971875 0.03015625 3.788125 0.1384375 4.5 0.25 C5.16 1.24 5.82 2.23 6.5 3.25 C6.17 4.24 5.84 5.23 5.5 6.25 C1.21 6.25 -3.08 6.25 -7.5 6.25 C-7.17 4.6 -6.84 2.95 -6.5 1.25 C-4.15897141 0.07948571 -2.60647047 0.0507754 0 0 Z " fill="#242426" transform="translate(383.5,171.75)"/>
<path d="M0 0 C0.99 0 1.98 0 3 0 C1.25477062 4.05214179 -1.4228157 7.30603961 -4.125 10.75 C-4.59292969 11.35199219 -5.06085938 11.95398438 -5.54296875 12.57421875 C-6.69225007 14.05186616 -7.84571235 15.52626005 -9 17 C-9.66 16.01 -10.32 15.02 -11 14 C-9.88568049 9.41890868 -7.10183169 6.41201486 -4 3 C-3.34 2.67 -2.68 2.34 -2 2 C-1.34 1.34 -0.68 0.68 0 0 Z " fill="#181B1F" transform="translate(172,129)"/>
<path d="M0 0 C0.33 0 0.66 0 1 0 C2.80991127 6.78716727 2.43609916 14.17852898 1 21 C0.67 20.34 0.34 19.68 0 19 C-0.66 19 -1.32 19 -2 19 C-2.05380578 16.20807795 -2.09357669 13.4171859 -2.125 10.625 C-2.14175781 9.8309375 -2.15851563 9.036875 -2.17578125 8.21875 C-2.19335473 6.14507985 -2.10335168 4.07116759 -2 2 C-1.34 1.34 -0.68 0.68 0 0 Z " fill="#111115" transform="translate(318,120)"/>
<path d="M0 0 C3.32597281 3.53105961 3.46770164 6.50235535 3.6875 11.25 C3.75324219 12.51328125 3.81898438 13.7765625 3.88671875 15.078125 C3.92410156 16.04234375 3.96148437 17.0065625 4 18 C3.01 17.34 2.02 16.68 1 16 C0.67 16.99 0.34 17.98 0 19 C-2.21934455 15.67098317 -2.27129898 14.51206363 -2.25 10.625 C-2.25515625 9.68914062 -2.2603125 8.75328125 -2.265625 7.7890625 C-1.98635261 4.85670238 -1.22149016 2.66595075 0 0 Z " fill="#13171B" transform="translate(266,121)"/>
<path d="M0 0 C1.39211215 4.17633644 -0.0464421 5.78960515 -1.9375 9.6875 C-2.78634766 11.45673828 -2.78634766 11.45673828 -3.65234375 13.26171875 C-4.09707031 14.16535156 -4.54179687 15.06898438 -5 16 C-5.33 15.01 -5.66 14.02 -6 13 C-6.66 13 -7.32 13 -8 13 C-7.52269162 11.5410574 -7.04308958 10.08286504 -6.5625 8.625 C-6.29566406 7.81289062 -6.02882813 7.00078125 -5.75390625 6.1640625 C-5 4 -5 4 -4 2 C-6.64 2 -9.28 2 -12 2 C-12 1.67 -12 1.34 -12 1 C-6.06 0.505 -6.06 0.505 0 0 Z " fill="#181A1B" transform="translate(484,115)"/>
<path d="M0 0 C0.99 0.33 1.98 0.66 3 1 C3 3.64 3 6.28 3 9 C2.67 9 2.34 9 2 9 C1.690625 9.94875 1.38125 10.8975 1.0625 11.875 C0 15 0 15 -1 17 C-1.66 17 -2.32 17 -3 17 C-3.2012567 5.68490113 -3.2012567 5.68490113 -2 1 C-1.34 0.67 -0.68 0.34 0 0 Z " fill="#212123" transform="translate(396,165)"/>
<path d="M0 0 C6.50515943 2.65025014 11.10207026 8.74875157 14 15 C13.67 15.66 13.34 16.32 13 17 C12.01 17 11.02 17 10 17 C9.74605469 16.38511719 9.49210937 15.77023438 9.23046875 15.13671875 C8.88628906 14.32847656 8.54210937 13.52023438 8.1875 12.6875 C7.85105469 11.88699219 7.51460938 11.08648437 7.16796875 10.26171875 C5.99493301 7.99018801 5.0129685 6.56676893 3 5 C2.01 5 1.02 5 0 5 C-0.33 4.01 -0.66 3.02 -1 2 C-0.67 1.34 -0.34 0.68 0 0 Z " fill="#121217" transform="translate(304,103)"/>
<path d="M0 0 C1.18851562 0.00902344 2.37703125 0.01804687 3.6015625 0.02734375 C4.51679688 0.03894531 5.43203125 0.05054687 6.375 0.0625 C6.375 0.7225 6.375 1.3825 6.375 2.0625 C7.365 2.3925 8.355 2.7225 9.375 3.0625 C9.375 3.3925 9.375 3.7225 9.375 4.0625 C3.765 4.0625 -1.845 4.0625 -7.625 4.0625 C-7.955 3.0725 -8.285 2.0825 -8.625 1.0625 C-5.74084117 -0.37957941 -3.20778472 -0.03144887 0 0 Z " fill="#282A2D" transform="translate(286.625,97.9375)"/>
<path d="M0 0 C0.66 0.99 1.32 1.98 2 3 C-5.06075526 6.32270836 -11.2723068 6.31806054 -19 6 C-18.34 5.01 -17.68 4.02 -17 3 C-14.3984375 2.70703125 -14.3984375 2.70703125 -11.375 2.8125 C-9.87066406 2.85310547 -9.87066406 2.85310547 -8.3359375 2.89453125 C-7.56507813 2.92933594 -6.79421875 2.96414062 -6 3 C-5.67 2.34 -5.34 1.68 -5 1 C-2.4375 0.375 -2.4375 0.375 0 0 Z " fill="#121419" transform="translate(298,157)"/>
<path d="M0 0 C0.33 0 0.66 0 1 0 C1 1.98 1 3.96 1 6 C1.66 6.33 2.32 6.66 3 7 C2.4352699 10.90829085 0.57868029 12.89920223 -2.0625 15.75 C-2.79597656 16.54921875 -3.52945313 17.3484375 -4.28515625 18.171875 C-4.85105469 18.77515625 -5.41695312 19.3784375 -6 20 C-6.66 19.67 -7.32 19.34 -8 19 C-7.75 16.625 -7.75 16.625 -7 14 C-5.67532254 13.3162955 -4.34136367 12.65035814 -3 12 C-0.93221883 8.19092943 -0.50203111 4.26726447 0 0 Z " fill="#15191A" transform="translate(232,162)"/>
<path d="M0 0 C0 0.99 0 1.98 0 3 C-3.50579381 5.33719587 -4.5529846 5.15827595 -8.625 4.75 C-9.60726563 4.66234375 -10.58953125 4.5746875 -11.6015625 4.484375 C-12.39304687 4.32453125 -13.18453125 4.1646875 -14 4 C-14.33 3.34 -14.66 2.68 -15 2 C-10.19321542 -2.00565382 -5.77107298 -0.93009526 0 0 Z " fill="#302F33" transform="translate(378,186)"/>
<path d="M0 0 C-0.875 4.875 -0.875 4.875 -2 6 C-10.19402985 6.26865672 -10.19402985 6.26865672 -14 5 C-13.67 4.01 -13.34 3.02 -13 2 C-11.07421875 1.26953125 -11.07421875 1.26953125 -8.6875 0.8125 C-7.90761719 0.65394531 -7.12773437 0.49539062 -6.32421875 0.33203125 C-4 0 -4 0 0 0 Z " fill="#2E2D2F" transform="translate(411,184)"/>
<path d="M0 0 C0.66 0.99 1.32 1.98 2 3 C0.03177114 4.96822886 -3.34808709 4.66248381 -6 5 C-6 5.66 -6 6.32 -6 7 C-3.03 7.495 -3.03 7.495 0 8 C0.33 8.99 0.66 9.98 1 11 C-1.97 10.01 -4.94 9.02 -8 8 C-8.6875 5.6875 -8.6875 5.6875 -9 3 C-6.83961861 -0.68535648 -3.96757925 -0.50649948 0 0 Z " fill="#262527" transform="translate(424,173)"/>
<path d="M0 0 C0.99 0.66 1.98 1.32 3 2 C1.32076975 5.80133442 -1.11462834 8.97082702 -3.625 12.25 C-4.04523438 12.80429688 -4.46546875 13.35859375 -4.8984375 13.9296875 C-5.92938719 15.28866663 -6.96429911 16.64463835 -8 18 C-9.32 17.34 -10.64 16.68 -12 16 C-11.4225 15.5875 -10.845 15.175 -10.25 14.75 C-9.5075 14.1725 -8.765 13.595 -8 13 C-7.2575 12.4225 -6.515 11.845 -5.75 11.25 C-3.33105322 8.13992557 -3.70530047 5.83109394 -4 2 C-3.01 1.67 -2.02 1.34 -1 1 C-0.67 0.67 -0.34 0.34 0 0 Z " fill="#141619" transform="translate(189,105)"/>
<path d="M0 0 C1.32 0.33 2.64 0.66 4 1 C4.12117188 2.21558594 4.24234375 3.43117187 4.3671875 4.68359375 C4.53597078 6.26828117 4.70526816 7.8529139 4.875 9.4375 C4.95363281 10.23994141 5.03226562 11.04238281 5.11328125 11.86914062 C5.33845763 13.92170994 5.66222587 15.96293009 6 18 C6.66 18.33 7.32 18.66 8 19 C6.35 19.33 4.7 19.66 3 20 C2.09586327 16.16275828 1.89423102 12.62497726 1.9375 8.6875 C1.94652344 7.61886719 1.95554687 6.55023438 1.96484375 5.44921875 C1.98224609 4.23685547 1.98224609 4.23685547 2 3 C1.34 3 0.68 3 0 3 C0 2.01 0 1.02 0 0 Z " fill="#0F0F10" transform="translate(360,167)"/>
<path d="M0 0 C0.99 0.99 1.98 1.98 3 3 C1.625 4.5 1.625 4.5 0 6 C-0.66 6 -1.32 6 -2 6 C-2.33 5.34 -2.66 4.68 -3 4 C-15.87 3.505 -15.87 3.505 -29 3 C-29 2.67 -29 2.34 -29 2 C-28.22809326 1.97494385 -27.45618652 1.9498877 -26.66088867 1.92407227 C-23.16958819 1.80815993 -19.67856078 1.68541176 -16.1875 1.5625 C-14.97255859 1.52318359 -13.75761719 1.48386719 -12.50585938 1.44335938 C-11.34248047 1.40146484 -10.17910156 1.35957031 -8.98046875 1.31640625 C-7.90692139 1.27974854 -6.83337402 1.24309082 -5.72729492 1.20532227 C-2.90688447 1.10458153 -2.90688447 1.10458153 0 0 Z " fill="#16191C" transform="translate(219,184)"/>
<path d="M0 0 C0.66 0.33 1.32 0.66 2 1 C1.34 2.32 0.68 3.64 0 5 C0.99 6.485 0.99 6.485 2 8 C1.34 8.66 0.68 9.32 0 10 C-2.625 9.625 -2.625 9.625 -5 9 C-5.268125 9.639375 -5.53625 10.27875 -5.8125 10.9375 C-7 13 -7 13 -10 14 C-8.51872621 10.74715253 -6.65319465 8.11102873 -4.4375 5.3125 C-3.81746094 4.52488281 -3.19742188 3.73726563 -2.55859375 2.92578125 C-1 1 -1 1 0 0 Z " fill="#1D1E22" transform="translate(186,118)"/>
<path d="M0 0 C0 0.99 0 1.98 0 3 C-7.26 3 -14.52 3 -22 3 C-22.33 2.01 -22.66 1.02 -23 0 C-15.50793651 -0.12698413 -15.50793651 -0.12698413 -12.5 0.625 C-9.83209655 1.02518552 -8.38757374 0.6934669 -5.8125 0 C-2 -1 -2 -1 0 0 Z " fill="#202025" transform="translate(210,159)"/>
<path d="M0 0 C3.96 0 7.92 0 12 0 C14.25 5.625 14.25 5.625 13 10 C12.34 9.67 11.68 9.34 11 9 C11 7.02 11 5.04 11 3 C7.37 3 3.74 3 0 3 C0 2.01 0 1.02 0 0 Z " fill="#181A1C" transform="translate(378,113)"/>
<path d="M0 0 C0.33 0 0.66 0 1 0 C1 8.25 1 16.5 1 25 C0.67 25 0.34 25 0 25 C-0.22786458 22.94921875 -0.45572917 20.8984375 -0.68359375 18.84765625 C-0.81886614 16.98859771 -0.81886614 16.98859771 -2 16 C-2.07258946 13.81360547 -2.08373783 11.62499611 -2.0625 9.4375 C-2.05347656 8.23996094 -2.04445313 7.04242188 -2.03515625 5.80859375 C-2.02355469 4.88175781 -2.01195312 3.95492187 -2 3 C-1.34 3 -0.68 3 0 3 C0 2.01 0 1.02 0 0 Z " fill="#2A2C2F" transform="translate(404,128)"/>
<path d="M0 0 C1.8125 5.4375 1.8125 5.4375 2 8 C0.25 10.3125 0.25 10.3125 -2 12 C-2.99 12 -3.98 12 -5 12 C-5 11.34 -5 10.68 -5 10 C-5.66 9.67 -6.32 9.34 -7 9 C-4.69 6.03 -2.38 3.06 0 0 Z " fill="#1A1E20" transform="translate(190,124)"/>
<path d="M0 0 C0.9075 0.226875 1.815 0.45375 2.75 0.6875 C3.08 1.6775 3.41 2.6675 3.75 3.6875 C4.08 4.3475 4.41 5.0075 4.75 5.6875 C5.74 6.0175 6.73 6.3475 7.75 6.6875 C8.9375 10.25 8.9375 10.25 9.75 13.6875 C8.76 14.1825 8.76 14.1825 7.75 14.6875 C6.67474806 12.03521188 5.65543849 9.40381546 4.75 6.6875 C0.9539919 4.78949595 -3.16817126 3.80800201 -7.25 2.6875 C-4.61280971 0.1517401 -3.74095095 -0.35970682 0 0 Z " fill="#101215" transform="translate(294.25,110.3125)"/>
<path d="M0 0 C0.66 0.33 1.32 0.66 2 1 C1.67 2.65 1.34 4.3 1 6 C0.34 5.67 -0.32 5.34 -1 5 C-2.54023996 4.93049459 -4.08334988 4.91547643 -5.625 4.9375 C-6.44226563 4.94652344 -7.25953125 4.95554688 -8.1015625 4.96484375 C-8.72804688 4.97644531 -9.35453125 4.98804688 -10 5 C-10.33 3.68 -10.66 2.36 -11 1 C-7.10835652 -0.29721449 -4.10570774 -0.13033993 0 0 Z " fill="#323133" transform="translate(408,172)"/>
<path d="M0 0 C0.33 0 0.66 0 1 0 C1.125 7.625 1.125 7.625 0 11 C-0.66 11.66 -1.32 12.32 -2 13 C-1.67 13.99 -1.34 14.98 -1 16 C-1.66 16 -2.32 16 -3 16 C-3.33 16.99 -3.66 17.98 -4 19 C-4 18.34 -4 17.68 -4 17 C-4.99 16.67 -5.98 16.34 -7 16 C-7 15.34 -7 14.68 -7 14 C-6.34 14 -5.68 14 -5 14 C-4.70996094 13.11248047 -4.70996094 13.11248047 -4.4140625 12.20703125 C-3.05585281 8.0853355 -1.67949415 4.0049476 0 0 Z " fill="#0A0D10" transform="translate(464,127)"/>
<path d="M0 0 C1.98 0 3.96 0 6 0 C5.47755558 3.76159981 4.7772785 6.32191002 2 9 C-0.5625 9.1875 -0.5625 9.1875 -3 9 C-3.99 9.495 -3.99 9.495 -5 10 C-4.34 8.68 -3.68 7.36 -3 6 C-2.01 6 -1.02 6 0 6 C0 4.02 0 2.04 0 0 Z " fill="#1A1A1C" transform="translate(215,80)"/>
<path d="M0 0 C0.66 0.33 1.32 0.66 2 1 C-1.75 5.875 -1.75 5.875 -4 7 C-5.87379605 7.07033769 -7.75001102 7.0843022 -9.625 7.0625 C-10.62789062 7.05347656 -11.63078125 7.04445312 -12.6640625 7.03515625 C-13.43492187 7.02355469 -14.20578125 7.01195312 -15 7 C-15 6.34 -15 5.68 -15 5 C-11.7 5 -8.4 5 -5 5 C-8.3 4.67 -11.6 4.34 -15 4 C-15 3.67 -15 3.34 -15 3 C-13.75283203 2.92652344 -13.75283203 2.92652344 -12.48046875 2.8515625 C-11.39378906 2.77679688 -10.30710938 2.70203125 -9.1875 2.625 C-8.10855469 2.55539063 -7.02960938 2.48578125 -5.91796875 2.4140625 C-2.81373814 2.18804267 -2.81373814 2.18804267 0 0 Z " fill="#191B1F" transform="translate(147,163)"/>
<path d="M0 0 C0.99 0.33 1.98 0.66 3 1 C-3.15034169 10.59453303 -3.15034169 10.59453303 -7 14 C-7.99 13.67 -8.98 13.34 -10 13 C-9.34 12.67 -8.68 12.34 -8 12 C-7.71125 11.2575 -7.4225 10.515 -7.125 9.75 C-5.84954376 6.63221807 -4.26697404 4.47950285 -2 2 C-1.34 2 -0.68 2 0 2 C0 1.34 0 0.68 0 0 Z " fill="#101214" transform="translate(206,128)"/>
<path d="M0 0 C0.33 0 0.66 0 1 0 C1.66 2.31 2.32 4.62 3 7 C3.99 7 4.98 7 6 7 C5.01 8.485 5.01 8.485 4 10 C1 10.125 1 10.125 -2 10 C-2.99 10.495 -2.99 10.495 -4 11 C-4 10.34 -4 9.68 -4 9 C-4.66 9 -5.32 9 -6 9 C-6.33 9.66 -6.66 10.32 -7 11 C-7 9.35 -7 7.7 -7 6 C-4.69 6 -2.38 6 0 6 C0 4.02 0 2.04 0 0 Z " fill="#111215" transform="translate(402,108)"/>
<path d="M0 0 C1.32 0 2.64 0 4 0 C3.1875 2.4375 3.1875 2.4375 2 5 C-1.69418201 6.231394 -4.2056261 5.64432764 -8 5 C-8 3.68 -8 2.36 -8 1 C-6.865625 1.020625 -5.73125 1.04125 -4.5625 1.0625 C-1.18424326 1.41577477 -1.18424326 1.41577477 0 0 Z " fill="#0F0E11" transform="translate(428,103)"/>
<path d="M0 0 C0.99 0 1.98 0 3 0 C4.50662097 3.01324195 4.17770373 5.68286377 4 9 C2 11 2 11 -1.625 11.125 C-2.73875 11.08375 -3.8525 11.0425 -5 11 C-4.03320312 10.64808594 -4.03320312 10.64808594 -3.046875 10.2890625 C-0.7922092 9.18838927 -0.7922092 9.18838927 -0.390625 6.8359375 C-0.34421875 6.02382812 -0.2978125 5.21171875 -0.25 4.375 C-0.19328125 3.55773437 -0.1365625 2.74046875 -0.078125 1.8984375 C-0.05234375 1.27195312 -0.0265625 0.64546875 0 0 Z " fill="#0F1213" transform="translate(389,95)"/>
<path d="M0 0 C2.66666667 2.66666667 5.33333333 5.33333333 8 8 C8.66 7.67 9.32 7.34 10 7 C9.34 8.32 8.68 9.64 8 11 C7.34 11 6.68 11 6 11 C5.67 11.33 5.34 11.66 5 12 C2.59424393 9.81482901 1.20464419 7.74080329 -0.1875 4.8125 C-0.53167969 4.09707031 -0.87585938 3.38164063 -1.23046875 2.64453125 C-1.48441406 2.10183594 -1.73835938 1.55914062 -2 1 C-1.34 0.67 -0.68 0.34 0 0 Z " fill="#101418" transform="translate(338,116)"/>
<path d="M0 0 C-0.66 1.65 -1.32 3.3 -2 5 C-0.68 4.34 0.64 3.68 2 3 C0.73058503 6.91402949 -0.51167694 8.79072873 -4 11 C-4 10.01 -4 9.02 -4 8 C-4.99 8 -5.98 8 -7 8 C-4.18918919 0 -4.18918919 0 0 0 Z " fill="#1F1F24" transform="translate(159,155)"/>
<path d="M0 0 C4.29 0 8.58 0 13 0 C13 0.99 13 1.98 13 3 C8.38 3 3.76 3 -1 3 C-0.67 2.01 -0.34 1.02 0 0 Z " fill="#27292C" transform="translate(471,113)"/>
<path d="M0 0 C0.89203125 0.00902344 1.7840625 0.01804687 2.703125 0.02734375 C3.37859375 0.03894531 4.0540625 0.05054687 4.75 0.0625 C4.42 1.7125 4.09 3.3625 3.75 5.0625 C3.09 4.7325 2.43 4.4025 1.75 4.0625 C-0.12056791 3.8349985 -1.99685958 3.65287189 -3.875 3.5 C-4.87789063 3.41621094 -5.88078125 3.33242187 -6.9140625 3.24609375 C-7.68492187 3.18550781 -8.45578125 3.12492187 -9.25 3.0625 C-9.25 2.4025 -9.25 1.7425 -9.25 1.0625 C-6.09493858 0.12630187 -3.28413498 -0.0432123 0 0 Z " fill="#1E1E1F" transform="translate(366.25,112.9375)"/>
<path d="M0 0 C0.66 0 1.32 0 2 0 C2 2.31 2 4.62 2 7 C1.34 7 0.68 7 0 7 C0 7.66 0 8.32 0 9 C-2 10.625 -2 10.625 -4 12 C-4.8125 9.9375 -4.8125 9.9375 -5 7 C-3.65635809 4.39870926 -2.04763347 2.09595521 0 0 Z " fill="#16171B" transform="translate(163,158)"/>
<path d="M0 0 C1.64696604 0.4752588 3.29254728 0.95531891 4.9375 1.4375 C6.31228516 1.83775391 6.31228516 1.83775391 7.71484375 2.24609375 C10 3 10 3 11 4 C11.04080783 5.99958364 11.04254356 8.00045254 11 10 C10.01 10 9.02 10 8 10 C7.67 7.69 7.34 5.38 7 3 C5.02 3 3.04 3 1 3 C0.67 2.01 0.34 1.02 0 0 Z " fill="#131314" transform="translate(417,178)"/>
<path d="M0 0 C1.32 0.33 2.64 0.66 4 1 C4.33 2.32 4.66 3.64 5 5 C4.01 5.66 3.02 6.32 2 7 C1.34 6.67 0.68 6.34 0 6 C-0.33 7.32 -0.66 8.64 -1 10 C-1.66 9.67 -2.32 9.34 -3 9 C-3 4.72290301 -2.29379749 3.44069624 0 0 Z " fill="#0D0D10" transform="translate(151,162)"/>
<path d="M0 0 C-0.75 4.75 -0.75 4.75 -3 7 C-3.99 6.01 -4.98 5.02 -6 4 C-5.34 4 -4.68 4 -4 4 C-4 3.34 -4 2.68 -4 2 C-6.97 2 -9.94 2 -13 2 C-13 1.67 -13 1.34 -13 1 C-11.58622218 0.63447197 -10.16879424 0.28304505 -8.75 -0.0625 C-7.96109375 -0.25972656 -7.1721875 -0.45695312 -6.359375 -0.66015625 C-3.89605178 -1.01497267 -2.34395868 -0.76877544 0 0 Z " fill="#17191C" transform="translate(176,101)"/>
<path d="M0 0 C2 2 2 2 3 5 C1.68 5 0.36 5 -1 5 C-1.66 6.98 -2.32 8.96 -3 11 C-4.65 11.33 -6.3 11.66 -8 12 C-5.6163187 7.65829477 -3.21880117 3.7935871 0 0 Z " fill="#141619" transform="translate(181,135)"/>
<path d="M0 0 C0.33 1.32 0.66 2.64 1 4 C-0.423125 4.556875 -0.423125 4.556875 -1.875 5.125 C-5.25553808 6.73995905 -5.25553808 6.73995905 -6.375 10.1875 C-6.58125 11.115625 -6.7875 12.04375 -7 13 C-8.32 12.34 -9.64 11.68 -11 11 C-9.54540569 9.35086118 -8.08620743 7.70578218 -6.625 6.0625 C-5.81289063 5.14597656 -5.00078125 4.22945313 -4.1640625 3.28515625 C-2 1 -2 1 0 0 Z " fill="#0F1317" transform="translate(266,103)"/>
<path d="M0 0 C0 3.54016293 -0.73358567 4.41055605 -2.8125 7.1875 C-3.33457031 7.90292969 -3.85664063 8.61835938 -4.39453125 9.35546875 C-4.92433594 9.89816406 -5.45414062 10.44085938 -6 11 C-6.99 11 -7.98 11 -9 11 C-8.09985829 6.69932292 -6.90171303 4.6115108 -3.375 2.125 C-2.26125 1.42375 -1.1475 0.7225 0 0 Z " fill="#090B0D" transform="translate(344,149)"/>
<path d="M0 0 C0.66 0.33 1.32 0.66 2 1 C1.360625 1.94875 0.72125 2.8975 0.0625 3.875 C-1.92620563 6.75287827 -1.92620563 6.75287827 -3 9 C-4.98 9 -6.96 9 -9 9 C-9.33 8.34 -9.66 7.68 -10 7 C-9.01 7 -8.02 7 -7 7 C-7 6.34 -7 5.68 -7 5 C-6.21625 4.731875 -5.4325 4.46375 -4.625 4.1875 C-1.71885077 3.15185568 -1.71885077 3.15185568 0 0 Z " fill="#0D0F13" transform="translate(450,161)"/>
<path d="M0 0 C4.55737263 0.43820891 7.57653445 0.85041169 11 4 C6.34462607 4.83796731 2.62921525 5.0161692 -2 4 C-0.68 3.34 0.64 2.68 2 2 C1.34 1.34 0.68 0.68 0 0 Z " fill="#17171B" transform="translate(293,99)"/>
<path d="M0 0 C3 3 3 3 3.14453125 5.8125 C3.03496094 6.864375 2.92539063 7.91625 2.8125 9 C2.71582031 10.051875 2.61914062 11.10375 2.51953125 12.1875 C2 15 2 15 0 18 C0 12.06 0 6.12 0 0 Z " fill="#25282A" transform="translate(194,82)"/>
<path d="M0 0 C2.01822917 0.29296875 4.03645833 0.5859375 6.0546875 0.87890625 C8.08140667 1.1684297 8.08140667 1.1684297 10 0 C10.99 0.66 11.98 1.32 13 2 C13 2.66 13 3.32 13 4 C7.80790596 4.21192221 3.873261 3.5912689 -1 2 C-0.67 1.34 -0.34 0.68 0 0 Z " fill="#2E2F33" transform="translate(278,148)"/>
<path d="M0 0 C0.66 0.66 1.32 1.32 2 2 C1.34 2 0.68 2 0 2 C0.226875 2.9075 0.45375 3.815 0.6875 4.75 C1 8 1 8 -0.3125 10.375 C-2 12 -2 12 -4 12 C-4.6875 10.25 -4.6875 10.25 -5 8 C-3.6875 6 -3.6875 6 -2 4 C-1.30419733 2.68163705 -0.62775567 1.35208914 0 0 Z " fill="#131416" transform="translate(461,162)"/>
<path d="M0 0 C0.66 0.33 1.32 0.66 2 1 C0.8125 4.4375 0.8125 4.4375 -1 8 C-3.6875 8.9375 -3.6875 8.9375 -6 9 C-5.67 7.68 -5.34 6.36 -5 5 C-4.34 5 -3.68 5 -3 5 C-2.67 4.01 -2.34 3.02 -2 2 C-1.34 1.34 -0.68 0.68 0 0 Z " fill="#181B1F" transform="translate(182,159)"/>
<path d="M0 0 C1.32 0.33 2.64 0.66 4 1 C0.67692308 6.78461538 0.67692308 6.78461538 -2.75 7.875 C-3.4925 7.91625 -4.235 7.9575 -5 8 C-3.62845496 5.04590299 -2.01136276 2.55991624 0 0 Z " fill="#0F0D11" transform="translate(165,148)"/>
<path d="M0 0 C3 1 3 1 4.75 4.3125 C6.33072237 8.97563098 6.33072237 8.97563098 5 12 C0 4.5 0 4.5 0 0 Z " fill="#05080A" transform="translate(434,123)"/>
<path d="M0 0 C0.99 0.33 1.98 0.66 3 1 C1.68 3.31 0.36 5.62 -1 8 C-1.66 8 -2.32 8 -3 8 C-3.33 8.99 -3.66 9.98 -4 11 C-4.66 10.67 -5.32 10.34 -6 10 C-4.27256146 6.38060496 -2.52349243 3.12432397 0 0 Z " fill="#211E25" transform="translate(172,135)"/>
<path d="M0 0 C2 3 2 3 3 5 C5.57951874 5.69093896 5.57951874 5.69093896 8.5625 6.125 C9.57441406 6.29257813 10.58632813 6.46015625 11.62890625 6.6328125 C12.80259766 6.81457031 12.80259766 6.81457031 14 7 C14 7.33 14 7.66 14 8 C11.85423363 8.02685938 9.70837355 8.04633088 7.5625 8.0625 C6.36753906 8.07410156 5.17257812 8.08570313 3.94140625 8.09765625 C1 8 1 8 0 7 C-0.04092937 4.66702567 -0.04241723 2.33294775 0 0 Z " fill="#1F1C20" transform="translate(394,183)"/>
<path d="M0 0 C0.99 0.33 1.98 0.66 3 1 C2.67 1.66 2.34 2.32 2 3 C2.66 3.66 3.32 4.32 4 5 C2.35 6.65 0.7 8.3 -1 10 C-1 7 -1 7 0 6 C-0.66 5.34 -1.32 4.68 -2 4 C-1.34 2.68 -0.68 1.36 0 0 Z " fill="#1E1F22" transform="translate(143,173)"/>
<path d="M0 0 C-1.8125 1.0625 -1.8125 1.0625 -4 2 C-4.99 1.67 -5.98 1.34 -7 1 C-7.66 2.32 -8.32 3.64 -9 5 C-11.31 5 -13.62 5 -16 5 C-14.68 4.67 -13.36 4.34 -12 4 C-12 3.34 -12 2.68 -12 2 C-4.71428571 -1.57142857 -4.71428571 -1.57142857 0 0 Z " fill="#262528" transform="translate(387,181)"/>
<path d="M0 0 C3 2 3 2 3.51171875 3.9453125 C3.67447917 5.96354167 3.83723958 7.98177083 4 10 C3.01 10.495 3.01 10.495 2 11 C0.19769832 7.17010894 -0.19622241 4.21878192 0 0 Z " fill="#0A0C0D" transform="translate(447,149)"/>
<path d="M0 0 C1.98 0.66 3.96 1.32 6 2 C5.67 3.65 5.34 5.3 5 7 C4.34 6.34 3.68 5.68 3 5 C2.01 5 1.02 5 0 5 C-0.66 4.01 -1.32 3.02 -2 2 C-1.34 2 -0.68 2 0 2 C0 1.34 0 0.68 0 0 Z " fill="#1B1D20" transform="translate(142,110)"/>
<path d="M0 0 C0.66 0 1.32 0 2 0 C2 0.99 2 1.98 2 3 C2.66 3 3.32 3 4 3 C4 3.99 4 4.98 4 6 C2.02 6 0.04 6 -2 6 C-1.125 1.125 -1.125 1.125 0 0 Z " fill="#232426" transform="translate(134,184)"/>
<path d="M0 0 C1.64599285 2.96278714 2.65262237 5.61306808 3 9 C2.01 10.485 2.01 10.485 1 12 C0.34 12 -0.32 12 -1 12 C-1.02698189 10.37509046 -1.04638757 8.75005367 -1.0625 7.125 C-1.07410156 6.22007812 -1.08570313 5.31515625 -1.09765625 4.3828125 C-1 2 -1 2 0 0 Z " fill="#181819" transform="translate(394,170)"/>
<path d="M0 0 C0 0.99 0 1.98 0 3 C-2.3125 4.75 -2.3125 4.75 -5 6 C-5.99 5.67 -6.98 5.34 -8 5 C-8 3 -8 3 -6.8125 1.375 C-4.44439338 -0.42149467 -2.90102749 -0.23521845 0 0 Z " fill="#080A0E" transform="translate(307,154)"/>
<path d="M0 0 C0.66 1.32 1.32 2.64 2 4 C0.35 5.65 -1.3 7.3 -3 9 C-3.66 8.67 -4.32 8.34 -5 8 C-4.01 7.67 -3.02 7.34 -2 7 C-2.99 6.01 -3.98 5.02 -5 4 C-4.01 3.67 -3.02 3.34 -2 3 C-1.34 2.01 -0.68 1.02 0 0 Z " fill="#13161A" transform="translate(141,143)"/>
<path d="M0 0 C2.475 0.99 2.475 0.99 5 2 C5.33 4.31 5.66 6.62 6 9 C3.35247996 6.42215154 1.05567935 4.08351902 -1 1 C-0.67 0.67 -0.34 0.34 0 0 Z " fill="#0A0B12" transform="translate(330,127)"/>
<path d="M0 0 C0.33 0 0.66 0 1 0 C1 2.64 1 5.28 1 8 C-1.31 8.66 -3.62 9.32 -6 10 C-5.65066406 9.52949219 -5.30132812 9.05898437 -4.94140625 8.57421875 C-4.48636719 7.95160156 -4.03132813 7.32898438 -3.5625 6.6875 C-2.88380859 5.76517578 -2.88380859 5.76517578 -2.19140625 4.82421875 C-0.82663692 2.90322899 -0.82663692 2.90322899 0 0 Z " fill="#0C0F12" transform="translate(302,136)"/>
<path d="M0 0 C1.65 0 3.3 0 5 0 C4.835 0.598125 4.67 1.19625 4.5 1.8125 C3.8885876 4.11344336 3.8885876 4.11344336 4 7 C3.34 7.66 2.68 8.32 2 9 C2 8.01 2 7.02 2 6 C1.34 6 0.68 6 0 6 C0 4.02 0 2.04 0 0 Z " fill="#181D1F" transform="translate(194,137)"/>
<path d="M0 0 C0.33 0 0.66 0 1 0 C1.125 7.625 1.125 7.625 0 11 C-0.99 11 -1.98 11 -3 11 C-2.44894091 7.0507432 -1.61064629 3.65079826 0 0 Z " fill="#111315" transform="translate(464,127)"/>
<path d="M0 0 C1 3 1 3 0.375 5.625 C-1 8 -1 8 -3.625 8.8125 C-4.800625 8.9053125 -4.800625 8.9053125 -6 9 C-4.47291037 5.56404834 -2.40072955 2.88087546 0 0 Z " fill="#151519" transform="translate(190,124)"/>
<path d="M0 0 C0.99 0.66 1.98 1.32 3 2 C2.67 2.99 2.34 3.98 2 5 C1.34 5 0.68 5 0 5 C0 5.66 0 6.32 0 7 C-1.65 7.33 -3.3 7.66 -5 8 C-4.34 7.67 -3.68 7.34 -3 7 C-2.29618843 5.01276732 -1.6288189 3.01222047 -1 1 C-0.67 0.67 -0.34 0.34 0 0 Z " fill="#15191D" transform="translate(349,121)"/>
<path d="M0 0 C0.66 1.32 1.32 2.64 2 4 C-1.13349732 5.04449911 -1.98968256 4.93423645 -5 4 C-5 3.34 -5 2.68 -5 2 C-5.66 1.67 -6.32 1.34 -7 1 C-4.50935112 0.31292445 -2.62113708 0 0 0 Z " fill="#15161A" transform="translate(278,99)"/>
<path d="M0 0 C0 2.97 0 5.94 0 9 C-0.33 8.01 -0.66 7.02 -1 6 C-1.99 6 -2.98 6 -4 6 C-4 4.35 -4 2.7 -4 1 C-1 0 -1 0 0 0 Z " fill="#151417" transform="translate(412,178)"/>
<path d="M0 0 C1.98 0.99 1.98 0.99 4 2 C4 2.99 4 3.98 4 5 C4.99 5.33 5.98 5.66 7 6 C6.67 6.66 6.34 7.32 6 8 C4.02 7.01 2.04 6.02 0 5 C0 3.35 0 1.7 0 0 Z " fill="#07090A" transform="translate(431,171)"/>
<path d="M0 0 C0 0.99 0 1.98 0 3 C-2.64 3 -5.28 3 -8 3 C-8 2.34 -8 1.68 -8 1 C-5.29120665 -0.35439668 -2.99066732 -0.06501451 0 0 Z " fill="#333237" transform="translate(424,173)"/>
<path d="M0 0 C1.98 0 3.96 0 6 0 C6.66 1.98 7.32 3.96 8 6 C4.48283697 6 3.62878252 5.17554415 1 3 C1.66 2.67 2.32 2.34 3 2 C2.01 1.34 1.02 0.68 0 0 Z " fill="#14171B" transform="translate(440,113)"/>
<path d="M0 0 C0.33 0.66 0.66 1.32 1 2 C1.66 2 2.32 2 3 2 C3 3.98 3 5.96 3 8 C2.34 8 1.68 8 1 8 C0.67 8.66 0.34 9.32 0 10 C0 6.7 0 3.4 0 0 Z " fill="#1A1C1D" transform="translate(359,168)"/>
<path d="M0 0 C0.99 0 1.98 0 3 0 C1.47291037 3.43595166 -0.59927045 6.11912454 -3 9 C-3 7.02 -3 5.04 -3 3 C-2.01 2.67 -1.02 2.34 0 2 C0 1.34 0 0.68 0 0 Z " fill="#141519" transform="translate(358,128)"/>
<path d="M0 0 C0.66 0.66 1.32 1.32 2 2 C2.66 1.34 3.32 0.68 4 0 C4.12375 0.61875 4.2475 1.2375 4.375 1.875 C4.87197356 4.19120832 4.87197356 4.19120832 7 6 C5.00045254 6.04254356 2.99958364 6.04080783 1 6 C0 5 0 5 -0.0625 2.4375 C-0.041875 1.633125 -0.02125 0.82875 0 0 Z " fill="#0F0F14" transform="translate(395,121)"/>
<path d="M0 0 C3.3 0.33 6.6 0.66 10 1 C9.67 1.66 9.34 2.32 9 3 C5.7 3 2.4 3 -1 3 C-0.67 2.01 -0.34 1.02 0 0 Z " fill="#454446" transform="translate(398,186)"/>
<path d="M0 0 C0.33 0.66 0.66 1.32 1 2 C1.99 1.67 2.98 1.34 4 1 C3.67 2.98 3.34 4.96 3 7 C2.01 7 1.02 7 0 7 C-0.38133299 5.0085944 -0.71325582 3.00720923 -1 1 C-0.67 0.67 -0.34 0.34 0 0 Z " fill="#1A1D22" transform="translate(129,143)"/>
<path d="M0 0 C2.97 0 5.94 0 9 0 C8.01 1.485 8.01 1.485 7 3 C4.5 3.375 4.5 3.375 2 3 C1.34 2.01 0.68 1.02 0 0 Z " fill="#070809" transform="translate(381,106)"/>
<path d="M0 0 C0.66 0.66 1.32 1.32 2 2 C-1.47325181 3.1577506 -4.36067448 3.06866652 -8 3 C-8.33 2.34 -8.66 1.68 -9 1 C-5.75778445 -0.08073852 -3.39597063 -0.21676408 0 0 Z " fill="#464648" transform="translate(372,187)"/>
<path d="M0 0 C0.99 1.32 1.98 2.64 3 4 C1.625 6 1.625 6 0 8 C-0.66 8 -1.32 8 -2 8 C-1.125 1.125 -1.125 1.125 0 0 Z " fill="#0B0B0F" transform="translate(141,175)"/>
<path d="M0 0 C0.33 0 0.66 0 1 0 C1.36923077 5.53846154 1.36923077 5.53846154 -0.5 7.875 C-1.2425 8.431875 -1.2425 8.431875 -2 9 C-3.21185923 5.36442231 -2.59260392 4.36216382 -1 1 C-0.67 0.67 -0.34 0.34 0 0 Z " fill="#121519" transform="translate(164,137)"/>
<path d="M0 0 C0.99 0.33 1.98 0.66 3 1 C1.515 3.475 1.515 3.475 0 6 C-1.32 5.67 -2.64 5.34 -4 5 C-3.34 4.01 -2.68 3.02 -2 2 C-1.34 2 -0.68 2 0 2 C0 1.34 0 0.68 0 0 Z " fill="#14191C" transform="translate(206,128)"/>
<path d="M0 0 C4.875 4.75 4.875 4.75 6 7 C0.33846154 5.52307692 0.33846154 5.52307692 -1.375 2.875 C-1.58125 2.25625 -1.7875 1.6375 -2 1 C-1.34 0.67 -0.68 0.34 0 0 Z " fill="#08090A" transform="translate(338,116)"/>
<path d="M0 0 C0.66 0.33 1.32 0.66 2 1 C1.4140625 7.15234375 1.4140625 7.15234375 1 9 C0.01 9.495 0.01 9.495 -1 10 C-2.23076923 4.58461538 -2.23076923 4.58461538 -1.0625 1.625 C-0.5365625 0.820625 -0.5365625 0.820625 0 0 Z " fill="#1E1D21" transform="translate(429,114)"/>
<path d="M0 0 C2.475 0.495 2.475 0.495 5 1 C5.66 3.31 6.32 5.62 7 8 C6.01 8.495 6.01 8.495 5 9 C3.92474806 6.34771188 2.90543849 3.71631546 2 1 C1.34 0.67 0.68 0.34 0 0 Z " fill="#0A0B0E" transform="translate(297,116)"/>
<path d="M0 0 C0 0.66 0 1.32 0 2 C-3.3 2 -6.6 2 -10 2 C-7.85732894 -2.28534211 -3.95706306 -0.79141261 0 0 Z " fill="#202123" transform="translate(334,114)"/>
<path d="M0 0 C1.09658936 3.28976808 0.79953138 4.71303767 0 8 C-0.99 8 -1.98 8 -3 8 C-3.33 7.67 -3.66 7.34 -4 7 C-2.79618552 4.50638429 -1.54571278 2.31856917 0 0 Z " fill="#12141A" transform="translate(201,109)"/>
<path d="M0 0 C0.99 0.33 1.98 0.66 3 1 C2.34 1 1.68 1 1 1 C1 1.66 1 2.32 1 3 C1.66 3.33 2.32 3.66 3 4 C2.34 4 1.68 4 1 4 C0.67 4.66 0.34 5.32 0 6 C-0.99 6.33 -1.98 6.66 -3 7 C-1.125 1.125 -1.125 1.125 0 0 Z " fill="#0C0E0F" transform="translate(435,164)"/>
<path d="M0 0 C2.97 0.495 2.97 0.495 6 1 C6 1.99 6 2.98 6 4 C4.35 4.33 2.7 4.66 1 5 C0.67 3.35 0.34 1.7 0 0 Z " fill="#141618" transform="translate(274,157)"/>
<path d="M0 0 C0.99 0.33 1.98 0.66 3 1 C2.01 1.495 2.01 1.495 1 2 C0.690625 2.639375 0.38125 3.27875 0.0625 3.9375 C-1 6 -1 6 -4 8 C-2.87548273 5.0280615 -1.77706209 2.66559313 0 0 Z " fill="#191D1F" transform="translate(331,147)"/>
<path d="M0 0 C1.65 0 3.3 0 5 0 C4.34 1.32 3.68 2.64 3 4 C1.35 4 -0.3 4 -2 4 C-2 3.34 -2 2.68 -2 2 C-1.34 2 -0.68 2 0 2 C0 1.34 0 0.68 0 0 Z " fill="#0C0E10" transform="translate(426,123)"/>
<path d="M0 0 C2.31 0 4.62 0 7 0 C5 3 5 3 2.375 3.6875 C1.199375 3.8421875 1.199375 3.8421875 0 4 C0 2.68 0 1.36 0 0 Z " fill="#131519" transform="translate(420,104)"/>
<path d="M0 0 C0.66 0.66 1.32 1.32 2 2 C0.515 4.475 0.515 4.475 -1 7 C-2.32 6.67 -3.64 6.34 -5 6 C-3.35 4.02 -1.7 2.04 0 0 Z " fill="#23282B" transform="translate(415,96)"/>
<path d="M0 0 C2.97 0.495 2.97 0.495 6 1 C6 1.99 6 2.98 6 4 C3.69 3.67 1.38 3.34 -1 3 C-0.67 2.01 -0.34 1.02 0 0 Z " fill="#39393B" transform="translate(368,185)"/>
<path d="M0 0 C1.32 0.33 2.64 0.66 4 1 C4 3.31 4 5.62 4 8 C3.896875 7.360625 3.79375 6.72125 3.6875 6.0625 C3.460625 5.381875 3.23375 4.70125 3 4 C2.01 3.67 1.02 3.34 0 3 C0 2.01 0 1.02 0 0 Z " fill="#16191E" transform="translate(213,119)"/>
<path d="M0 0 C0.99 0 1.98 0 3 0 C2.67 1.65 2.34 3.3 2 5 C1.01 5.33 0.02 5.66 -1 6 C-0.67 4.02 -0.34 2.04 0 0 Z " fill="#2D2F31" transform="translate(468,117)"/>
<path d="M0 0 C5.75 0.75 5.75 0.75 8 3 C5.36 3 2.72 3 0 3 C0 2.01 0 1.02 0 0 Z " fill="#27282C" transform="translate(378,113)"/>
<path d="M0 0 C-0.33 1.65 -0.66 3.3 -1 5 C-3.475 4.01 -3.475 4.01 -6 3 C-3.375 0 -3.375 0 0 0 Z " fill="#242424" transform="translate(371,113)"/>
<path d="M0 0 C1.32 0.33 2.64 0.66 4 1 C4 1.66 4 2.32 4 3 C2.68 3 1.36 3 0 3 C0 3.66 0 4.32 0 5 C-0.99 5.33 -1.98 5.66 -3 6 C-2 4 -1 2 0 0 Z " fill="#0F0E14" transform="translate(181,127)"/>
<path d="M0 0 C1.98 0.66 3.96 1.32 6 2 C6 2.33 6 2.66 6 3 C4.35 3 2.7 3 1 3 C1.33 4.32 1.66 5.64 2 7 C1.34 7 0.68 7 0 7 C-0.38133299 5.0085944 -0.71325582 3.00720923 -1 1 C-0.67 0.67 -0.34 0.34 0 0 Z " fill="#0D1315" transform="translate(417,124)"/>
<path d="M0 0 C0.66 0 1.32 0 2 0 C2.625 1.8125 2.625 1.8125 3 4 C2.01 5.485 2.01 5.485 1 7 C-0.0625 4.625 -0.0625 4.625 -1 2 C-0.67 1.34 -0.34 0.68 0 0 Z " fill="#1A1A1D" transform="translate(396,117)"/>
<path d="M0 0 C2.31 0 4.62 0 7 0 C4.6875 2.0625 4.6875 2.0625 2 4 C1.01 3.67 0.02 3.34 -1 3 C-0.67 2.01 -0.34 1.02 0 0 Z " fill="#0D151B" transform="translate(321,113)"/>
</svg>
